<?xml version="1.0" encoding="UTF-8" standalone="no"?>
<!DOCTYPE svg PUBLIC "-//W3C//DTD SVG 1.1//EN" "http://www.w3.org/Graphics/SVG/1.1/DTD/svg11.dtd">
<svg width="100%" height="100%" viewBox="0 0 800 800" version="1.1" xmlns="http://www.w3.org/2000/svg" xmlns:xlink="http://www.w3.org/1999/xlink" xml:space="preserve" xmlns:serif="http://www.serif.com/" style="fill-rule:evenodd;clip-rule:evenodd;stroke-linecap:round;stroke-linejoin:round;stroke-miterlimit:1.5;">
    <g id="Capa4">
        <path d="M93.293,91.819C0.131,121.989 39.055,769.09 264.912,724.261C475.667,682.429 174.261,65.597 93.293,91.819Z" style="fill:#68d6d3;stroke:#000;stroke-width:16.16px;"/>
        <path d="M562.025,276.983L552.888,254.3C552.888,254.3 454.413,236.759 367.496,299.776C367.496,299.776 372.977,373.804 395.651,407.539C395.651,407.539 349.102,507.445 396.927,579.271C396.927,579.271 366.633,658.754 423.712,699.773C480.791,740.791 556.884,709.658 556.884,709.658C556.884,709.658 671.38,748.299 723.841,693.291C776.303,638.283 735.309,585.227 735.309,585.227C735.309,585.227 793.571,546.386 729.679,400.932C729.679,400.932 752.678,354.784 755.281,299.125C755.281,299.125 693.343,230.852 572.413,254.477L562.025,276.983Z" style="fill:#68d6d3;stroke:#000;stroke-width:16.16px;"/>
        <path d="M72.615,130.116L218.626,720.889" style="fill:none;stroke:#000;stroke-width:16.16px;"/>
        <path d="M151.656,132.082L307.672,691.64" style="fill:none;stroke:#000;stroke-width:16.16px;"/>
        <path d="M226.378,579.802L248.956,671.71C248.956,671.71 278.302,681.975 285.198,710.785C285.198,710.785 289.1,601.74 226.378,579.802Z" style="fill:none;stroke:#000;stroke-width:16.16px;"/>
        <path d="M570.474,256.162C570.474,256.162 553.753,294.99 564.895,357.492C564.895,357.492 438.804,438.899 442.167,557.917C443.31,598.372 452.204,651.387 499.097,686.638C499.097,686.638 534.774,708.692 573.428,702.29C573.428,702.29 592.815,716.676 622.288,722.214" style="fill:none;stroke:#000;stroke-width:16.16px;"/>
        <g transform="matrix(0.920895,0,0,0.65238,33.7745,198.054)">
            <path d="M389.895,607.303C389.895,607.303 394.045,573.395 426.955,569.742" style="fill:none;stroke:#000;stroke-width:20.25px;"/>
        </g>
        <path d="M442.998,462.962C442.998,462.962 455.034,460.259 461.394,473.739" style="fill:none;stroke:#000;stroke-width:16.16px;"/>
        <path d="M422.601,387.679C422.601,387.679 458.092,350.745 531.666,350.993" style="fill:none;stroke:#000;stroke-width:16.16px;"/>
        <path d="M594.778,354.204C594.778,354.204 659.066,348.857 703.542,385.932" style="fill:none;stroke:#000;stroke-width:16.16px;"/>
        <path d="M696.38,472.334C696.38,472.334 581.037,480.065 604.153,566.574C625.695,647.199 724.045,570.234 724.045,570.234" style="fill:none;stroke:#000;stroke-width:16.16px;"/>
        <path d="M735.586,585.696C735.586,585.696 721.259,570.166 712.637,577.323" style="fill:none;stroke:#000;stroke-width:16.16px;"/>
        <path d="M600.009,554.825C600.009,554.825 553.429,494.018 492.933,546.803" style="fill:none;stroke:#000;stroke-width:16.16px;"/>
    </g>
</svg>
