<?xml version="1.0" encoding="UTF-8" standalone="no"?>
<!DOCTYPE svg PUBLIC "-//W3C//DTD SVG 1.1//EN" "http://www.w3.org/Graphics/SVG/1.1/DTD/svg11.dtd">
<svg width="100%" height="100%" viewBox="0 0 800 800" version="1.1" xmlns="http://www.w3.org/2000/svg" xmlns:xlink="http://www.w3.org/1999/xlink" xml:space="preserve" xmlns:serif="http://www.serif.com/" style="fill-rule:evenodd;clip-rule:evenodd;stroke-linecap:round;stroke-linejoin:round;stroke-miterlimit:1.5;">
    <g id="Capa2" transform="matrix(0.625,0,0,1,0,0)">
        <g transform="matrix(1.90879,0,0,1,-653.044,-7.60343)">
            <path d="M686.476,22.957C671.158,19.636 669.227,39.742 671.626,97.192C671.626,97.192 648.046,31.322 627.463,37.178C606.879,43.035 637.623,113.365 637.623,113.365C637.623,113.365 591.148,62.311 578.409,76.361C557.605,99.308 614.856,144.215 614.856,144.215C614.856,144.215 539.92,150.273 551.272,177.801C559.825,198.539 626.092,176.489 626.092,176.489C626.092,176.489 436.654,310.609 595.138,610.279L572.495,571.167C572.495,571.167 516.307,576.754 477.222,623.547C477.222,623.547 461.27,715.625 535.257,762.742C535.257,762.742 667.922,803.512 812.947,765.403C812.947,765.403 867.245,723.035 868.766,635.961C868.766,635.961 837.179,589.107 777.093,577.626C777.093,577.626 768.056,603.326 757.414,616.185C746.771,629.044 914.921,367.556 740.23,181.189C740.23,181.189 803.438,199.419 809.794,188.363C827.303,157.902 754.181,160.526 754.181,160.526C754.181,160.526 825.653,148.434 814.704,123.145C803.755,97.857 753.666,128.345 753.666,128.345C753.666,128.345 804.577,86.599 788.665,61.421C772.752,36.242 731.269,100.69 731.269,100.69C731.269,100.69 762.353,57.959 750.014,31.214C737.676,4.469 704.278,97.516 704.278,97.516C704.278,97.516 706.352,27.265 686.476,22.957Z" style="fill:#81e14a;stroke:#000;stroke-width:13.85px;"/>
        </g>
        <g transform="matrix(1.75091,0,0,1,-547.021,-2.6137)">
            <path d="M621.622,170.71C621.622,170.71 593.099,215.514 616.697,215.877C640.295,216.239 654.999,184.92 654.999,184.92C654.999,184.92 630.73,235.58 652.093,245.533C673.457,255.486 692.828,190.855 692.828,190.855C692.828,190.855 701.617,244.348 724.439,245.155C747.26,245.963 714.818,188.307 714.818,188.307C714.818,188.307 743.4,233.145 765.095,223.648C786.79,214.151 745.912,176.21 745.912,176.21" style="fill:#81e14a;stroke:#000;stroke-width:14.54px;"/>
        </g>
        <g transform="matrix(1.75091,0,0,1,-547.021,-2.6137)">
            <path d="M578.783,251.722L545.359,217.689" style="fill:none;stroke:#000;stroke-width:14.54px;"/>
        </g>
        <g transform="matrix(1.75091,0,0,1,-547.021,-2.6137)">
            <path d="M551.161,326.447L511.935,313.873" style="fill:none;stroke:#000;stroke-width:14.54px;"/>
        </g>
        <g transform="matrix(1.75091,0,0,1,-547.021,-2.6137)">
            <path d="M550.594,402.487L502.303,398.178" style="fill:none;stroke:#000;stroke-width:14.54px;"/>
        </g>
        <g transform="matrix(1.75091,0,0,1,-547.021,-2.6137)">
            <path d="M555.469,465.899L513.064,481.936" style="fill:none;stroke:#000;stroke-width:14.54px;"/>
        </g>
        <g transform="matrix(1.75091,0,0,1,-547.021,-2.6137)">
            <path d="M575.488,531.831L534.777,550.868" style="fill:none;stroke:#000;stroke-width:14.54px;"/>
        </g>
        <g transform="matrix(1.66668,0.0448124,0.0687356,0.964149,-505.973,-26.572)">
            <path d="M689.856,256.126L711.819,238.222" style="fill:none;stroke:#000;stroke-width:14.55px;"/>
        </g>
        <g transform="matrix(1.63798,0.0306688,0.0536982,0.985417,-469.585,-24.8476)">
            <path d="M687.223,342.698L727.259,323.661" style="fill:none;stroke:#000;stroke-width:14.7px;"/>
        </g>
        <g transform="matrix(1.75091,0,0,1,-538.5,-4.13768)">
            <path d="M688.362,410.695L718.64,417.45" style="fill:none;stroke:#000;stroke-width:14.54px;"/>
        </g>
        <g transform="matrix(1.64412,-0.0726793,-0.136,0.907442,-404.784,91.9786)">
            <path d="M685.938,479.615L711.314,509.854" style="fill:none;stroke:#000;stroke-width:17.12px;"/>
        </g>
        <g transform="matrix(1.75091,0,0,1,-539.504,4.79417)">
            <path d="M679.123,546.895L697.856,574.546" style="fill:none;stroke:#000;stroke-width:14.54px;"/>
        </g>
        <g transform="matrix(1.75091,0,0,1,-547.021,-2.6137)">
            <path d="M778.02,258.046L817.382,223.786" style="fill:none;stroke:#000;stroke-width:14.54px;"/>
        </g>
        <g transform="matrix(1.75091,0,0,1,-547.021,-2.6137)">
            <path d="M797.009,336.199L841.018,319.118" style="fill:none;stroke:#000;stroke-width:14.54px;"/>
        </g>
        <g transform="matrix(1.75091,0,0,1,-547.021,-2.6137)">
            <path d="M797.574,406.978L846.84,400.794" style="fill:none;stroke:#000;stroke-width:14.54px;"/>
        </g>
        <g transform="matrix(1.75091,0,0,1,-530.281,-3.56972)">
            <path d="M785.246,474.975L827.706,494.109" style="fill:none;stroke:#000;stroke-width:14.54px;"/>
        </g>
        <g transform="matrix(1.75091,0,0,1,-538.963,-11.824)">
            <path d="M770.029,543.542L804.18,564.949" style="fill:none;stroke:#000;stroke-width:14.54px;"/>
        </g>
        <g transform="matrix(1.75091,0,0,1,-547.021,-2.6137)">
            <path d="M463.817,627.059C463.817,627.059 662.623,725.06 882.881,634.506" style="fill:#81e14a;stroke:#000;stroke-width:14.54px;"/>
        </g>
        <g transform="matrix(1.75091,0,0,1,-547.021,-2.6137)">
            <path d="M580.444,613.727C586.08,613.529 594.067,605.87 607.496,607.362C619.795,608.729 629.35,617.524 642.639,617.524" style="fill:#81e14a;"/>
            <path d="M580.667,621.345C583.031,621.262 585.73,620.401 588.802,619.068C593.15,617.181 598.822,614.06 606.792,614.945C612.303,615.558 617.172,617.939 622.179,620.063C628.542,622.761 635.072,625.146 642.639,625.146C646.483,625.146 649.604,621.731 649.604,617.524C649.604,613.318 646.483,609.902 642.639,609.902C636.917,609.902 632.025,607.89 627.213,605.849C621.046,603.233 614.987,600.534 608.199,599.779C598.751,598.73 591.582,601.427 585.945,603.895C583.649,604.901 581.836,606.052 580.22,606.109C576.378,606.244 573.359,609.767 573.482,613.971C573.605,618.176 576.825,621.48 580.667,621.345Z"/>
        </g>
        <g transform="matrix(1.75091,0,0,1,-547.021,-2.6137)">
            <path d="M685.059,621.653C683.884,616.952 707.473,610.231 711.232,609.479C734.003,604.925 752.402,616.254 774.32,616.254C781.622,616.254 794.139,614.804 796.761,606.939" style="fill:#81e14a;"/>
            <path d="M691.509,624.524C696.894,620.979 709.919,617.49 712.484,616.977C722.929,614.888 732.366,616.553 741.71,618.628C752.345,620.991 762.878,623.876 774.32,623.876C779.431,623.876 786.718,623.169 792.402,620.7C797.652,618.419 801.609,614.636 803.304,609.551C804.621,605.599 802.759,601.22 799.148,599.779C795.536,598.337 791.535,600.375 790.218,604.327C789.985,605.026 789.344,605.391 788.704,605.788C787.727,606.394 786.596,606.843 785.409,607.209C781.676,608.358 777.439,608.632 774.32,608.632C763.844,608.632 754.219,605.853 744.482,603.689C733.454,601.239 722.306,599.516 709.979,601.982C706.635,602.651 689.225,607.741 683.043,612.359C678.321,615.885 677.543,620.47 678.341,623.664C679.356,627.721 683.19,630.114 686.897,629.004C689.07,628.354 690.72,626.644 691.509,624.524Z"/>
        </g>
    </g>
</svg>
