<?xml version="1.0" encoding="UTF-8" standalone="no"?>
<!DOCTYPE svg PUBLIC "-//W3C//DTD SVG 1.1//EN" "http://www.w3.org/Graphics/SVG/1.1/DTD/svg11.dtd">
<svg width="100%" height="100%" viewBox="0 0 800 800" version="1.1" xmlns="http://www.w3.org/2000/svg" xmlns:xlink="http://www.w3.org/1999/xlink" xml:space="preserve" xmlns:serif="http://www.serif.com/" style="fill-rule:evenodd;clip-rule:evenodd;stroke-linecap:round;stroke-linejoin:round;stroke-miterlimit:1.5;">
    <g id="Capa1">
    </g>
    <g id="Gato">
        <path d="M305.753,101.734C305.753,101.734 311.454,70.079 340.403,52.848C340.403,52.848 362.587,61.388 371.844,99.513C371.844,99.513 398.901,103.926 417.593,130.579C417.593,130.579 446.965,102.092 478.996,111.788C478.996,111.788 491.639,136.694 457.586,177.648C457.586,177.648 466.499,220.217 428.199,255.155C428.199,255.155 546.083,304.102 537.252,451.887C537.252,451.887 628.387,487.682 524.486,605.6C524.486,605.6 493.418,637.955 497.795,701.814C497.795,701.814 503.652,735.68 481.303,740.69C458.954,745.7 441.075,707.546 441.075,707.546C441.075,707.546 401.818,620.675 479.31,520.139L384.391,509.923C384.391,509.923 349.394,528.771 310.099,504.793C310.099,504.793 275.918,531.768 254.294,520.01C232.669,508.251 256.851,477.126 256.851,477.126C256.851,477.126 221.678,374.384 267.815,234.838C267.815,234.838 248.659,212.061 261.687,162.909C274.714,113.758 305.753,101.734 305.753,101.734Z" style="fill:#fb094a;stroke:#000;stroke-width:15.72px;"/>
        <ellipse cx="340.095" cy="151.6" rx="8.346" ry="7.9" style="stroke:#000;stroke-width:15.72px;"/>
        <ellipse cx="390.745" cy="179.022" rx="8.378" ry="7.872" style="stroke:#000;stroke-width:15.72px;"/>
        <path d="M529.342,475.126C529.342,475.126 503.603,487.573 477.798,522.108" style="fill:#fb094a;stroke:#000;stroke-width:15.72px;"/>
        <path d="M259.837,117.409C259.837,117.409 285.384,127.862 293.31,140.6" style="fill:#fb094a;stroke:#000;stroke-width:15.72px;"/>
        <path d="M241.218,147.09C241.218,147.09 263.89,147.753 278.413,162.096" style="fill:#fb094a;stroke:#000;stroke-width:15.72px;"/>
        <path d="M433.197,203.486C433.197,203.486 456.14,197.818 475.526,206.643" style="fill:#fb094a;stroke:#000;stroke-width:15.72px;"/>
        <path d="M425.928,226.01C425.928,226.01 445,229.452 459.987,244.583" style="fill:#fb094a;stroke:#000;stroke-width:15.72px;"/>
        <path d="M323.944,253.975C324.142,252.621 319.168,253.267 318.457,253.408C314.554,254.182 308.293,257.874 307.005,261.707" style="fill:#fb094a;"/>
        <path d="M322.603,255.093C322.648,255.246 322.665,255.433 322.665,255.315C322.665,255.222 322.644,255.148 322.603,255.093L322.597,255.067C322.86,255.395 323.244,255.628 323.693,255.693C324.642,255.832 325.524,255.174 325.662,254.226C326.239,253.03 325.349,252.051 323.634,251.213C322.043,250.435 318.568,250.65 317.917,250.686C315.203,251.003 311.443,252.391 308.496,254.485C307.474,255.211 306.525,256.013 305.847,256.931C304.931,258.171 304.34,259.457 304.128,260.74C303.595,262.327 304.45,264.049 306.038,264.583C307.625,265.117 309.348,264.261 309.881,262.673C310.175,262.085 310.875,261.759 311.454,261.208C312.427,260.281 313.523,259.285 314.732,258.473C316.232,257.465 317.705,256.517 318.997,256.131C319.367,256.001 322.16,254.44 322.603,255.093ZM322.238,254.293C322.232,254.553 322.258,254.777 322.479,254.904C322.361,254.72 322.278,254.513 322.238,254.293Z"/>
        <path d="M312.721,274.91C312.683,273.815 306.57,277.808 306.328,277.988C302.896,280.54 300.733,284.235 299.721,288.251" style="fill:#fb094a;"/>
        <path d="M312.626,276.643L312.782,276.646C313.74,276.612 314.49,275.808 314.457,274.85C314.657,273.692 313.757,272.969 311.587,272.963C310.648,272.96 309.177,273.089 307.582,273.572C305.833,274.101 304.382,275.116 304.249,275.192C301.574,276.845 299.466,279.079 297.877,281.657C297.558,282.173 297.229,282.694 297.038,283.27C296.587,284.63 296.477,285.986 296.44,287.424C295.984,289.235 297.083,291.075 298.894,291.531C300.704,291.988 302.544,290.889 303.001,289.078C303.457,288.177 304.184,287.53 304.663,286.645C305.312,285.445 305.723,284.136 306.528,283.025C307.097,282.24 307.665,281.452 308.407,280.783C308.495,280.699 309.632,279.909 310.687,278.905C311.562,278.073 312.914,277.231 312.626,276.643ZM311.254,275.835C311.362,276.067 311.512,276.245 311.742,276.342C311.546,276.209 311.379,276.036 311.254,275.835Z"/>
        <path d="M316.626,297.246C316.536,296.654 317.797,295.54 317.194,295.54C316.019,295.54 313.952,298.309 313.45,299.034C310.922,302.679 308.593,307.38 307.503,311.7" style="fill:#fb094a;"/>
        <path d="M317.239,299.035C317.949,298.795 318.447,298.152 318.509,297.412C318.534,297.499 318.577,297.584 318.646,297.664C318.972,298.039 319.359,297.032 319.595,296.804C320.175,296.247 319.768,295.578 319.87,295.118C320.082,294.152 319.055,293.961 318.254,293.128C318.032,292.897 317.643,293.089 317.194,292.884C316.447,292.617 315.626,293.072 314.485,293.473C312.766,294.076 310.85,296.167 310.191,296.775C307.958,299.39 305.596,302.459 304.202,305.87C303.958,306.469 303.732,307.08 303.662,307.711C303.54,308.813 303.631,309.702 303.752,310.754C303.23,312.825 304.487,314.93 306.557,315.452C308.628,315.974 310.733,314.717 311.255,312.646C311.763,311.897 312.475,311.467 312.935,310.634C313.404,309.786 313.635,308.806 313.987,307.876C314.853,305.589 315.634,303.28 316.709,301.294C316.825,301.009 316.972,299.823 317.239,299.035ZM317.797,298.311C317.759,298.308 317.722,298.313 317.687,298.328C317.725,298.334 317.763,298.331 317.797,298.311Z"/>
        <path d="M377.723,513.703C398.862,502.794 389.148,482.686 389.148,482.686C389.148,482.686 374.721,465.494 355.751,476.377L371.023,472.905C371.023,472.905 354.609,419.484 382.771,354.243" style="fill:#fb094a;stroke:#000;stroke-width:15.72px;"/>
        <path d="M381.223,471.231C381.223,471.231 339.638,395.747 430.353,347.531" style="fill:#fb094a;stroke:#000;stroke-width:15.72px;"/>
        <path d="M389.942,477.549C389.942,477.549 397.655,459.925 422.807,465.911" style="fill:#fb094a;stroke:#000;stroke-width:15.72px;"/>
        <path d="M318.88,179.089C318.88,179.089 321.385,200.536 345.049,191.957C345.049,191.957 348.374,220.528 376.491,208.65" style="fill:#fb094a;stroke:#000;stroke-width:15.72px;"/>
        <path d="M309.555,353.036C317.646,349.482 295.076,406.473 312.528,475.655" style="fill:#fb094a;stroke:#000;stroke-width:15.72px;"/>
    </g>
</svg>
