<?xml version="1.0" encoding="UTF-8" standalone="no"?>
<!DOCTYPE svg PUBLIC "-//W3C//DTD SVG 1.1//EN" "http://www.w3.org/Graphics/SVG/1.1/DTD/svg11.dtd">
<svg width="100%" height="100%" viewBox="0 0 800 800" version="1.1" xmlns="http://www.w3.org/2000/svg" xmlns:xlink="http://www.w3.org/1999/xlink" xml:space="preserve" xmlns:serif="http://www.serif.com/" style="fill-rule:evenodd;clip-rule:evenodd;stroke-linecap:round;stroke-linejoin:round;stroke-miterlimit:1.5;">
    <g transform="matrix(1.02115,0,0,1,-172.541,5.1787)">
        <path d="M459.576,66.009C459.576,66.009 465.768,31.333 497.211,12.458C497.211,12.458 521.308,21.813 531.362,63.576C531.362,63.576 560.751,68.41 581.053,97.606C581.053,97.606 612.956,66.401 647.747,77.022C647.747,77.022 661.48,104.305 624.492,149.166C624.492,149.166 634.173,195.797 592.573,234.068C592.573,234.068 720.615,287.686 711.023,449.572C711.023,449.572 810.011,488.783 697.157,617.952C697.157,617.952 663.412,653.394 668.166,723.347C668.166,723.347 674.527,760.444 650.253,765.932C625.978,771.42 606.559,729.626 606.559,729.626C606.559,729.626 563.919,634.465 648.088,524.336L544.99,513.145C544.99,513.145 506.978,533.792 464.296,507.526C464.296,507.526 427.17,537.075 403.683,524.195C380.195,511.314 406.461,477.219 406.461,477.219C406.461,477.219 368.257,364.675 418.369,211.813C418.369,211.813 397.562,186.862 411.712,133.021C425.863,79.18 459.576,66.009 459.576,66.009Z" style="fill:#e05a45;stroke:#0e0000;stroke-width:12.97px;"/>
    </g>
    <g transform="matrix(1.02115,0,0,1,-165.178,4.27043)">
        <ellipse cx="489.666" cy="121.541" rx="9.066" ry="8.654" style="stroke:#000;stroke-width:12.97px;"/>
    </g>
    <g transform="matrix(1.02115,0,0,1,-173.339,8.81342)">
        <ellipse cx="552.673" cy="147.037" rx="9.1" ry="8.623" style="stroke:#000;stroke-width:12.97px;"/>
    </g>
    <g transform="matrix(1.02115,0,0,1,-169.474,0)">
        <path d="M699.428,480.208C699.428,480.208 671.47,493.842 643.442,531.672" style="fill:#e05a45;stroke:#0e0000;stroke-width:12.97px;"/>
    </g>
    <g transform="matrix(1.02115,0,0,1,-169.474,0)">
        <path d="M406.7,88.358C406.7,88.358 434.448,99.809 443.057,113.762" style="fill:#e05a45;stroke:#000;stroke-width:12.97px;"/>
    </g>
    <g transform="matrix(1.05495,0.346263,-0.300694,0.878568,-144.062,-134.992)">
        <path d="M389.282,137.802C389.282,137.802 410.924,130.1 429.233,140.767" style="fill:#e05a45;stroke:#000;stroke-width:12.89px;"/>
    </g>
    <g transform="matrix(1.02115,0,0,1,-169.474,0)">
        <path d="M594.997,182.648C594.997,182.648 619.918,176.439 640.974,186.107" style="fill:#e05a45;stroke:#000;stroke-width:12.97px;"/>
    </g>
    <g transform="matrix(1.02115,0,0,1,-169.474,0)">
        <path d="M587.102,207.322C587.102,207.322 607.817,211.092 624.096,227.666" style="fill:#e05a45;stroke:#000;stroke-width:12.97px;"/>
    </g>
    <g transform="matrix(1.02115,0,0,1,-169.474,0)">
        <path d="M476.331,237.954C476.545,236.471 471.143,237.18 470.371,237.334C466.132,238.182 459.331,242.225 457.932,246.424" style="fill:#e05a45;"/>
        <path d="M475.144,238.745C475.357,239.081 475.705,239.324 476.123,239.387C476.898,239.504 477.619,238.957 477.734,238.166C478.162,237.07 477.404,236.127 475.851,235.461C474.17,234.742 470.602,235.002 469.935,235.061C467.111,235.449 463.21,236.97 460.158,239.205C459.108,239.974 458.136,240.817 457.414,241.764C456.469,243.005 455.851,244.317 455.586,245.609C455.145,246.931 455.838,248.37 457.133,248.82C458.428,249.27 459.837,248.562 460.278,247.239C460.567,246.627 461.178,246.193 461.73,245.611C462.591,244.705 463.593,243.763 464.715,242.936C466.756,241.43 468.99,240.099 470.807,239.607C471.274,239.459 475.142,237.532 475.074,238.888C475.071,238.958 475.127,238.84 475.144,238.745ZM474.927,238.164C474.924,238.332 474.944,238.482 475.054,238.586C474.992,238.454 474.948,238.312 474.927,238.164Z" style="fill:#0e0000;"/>
    </g>
    <g transform="matrix(1.02115,0,0,1,-168.759,-8.2393)">
        <path d="M463.441,269.127C463.4,267.927 456.76,272.301 456.497,272.498C452.769,275.294 450.42,279.341 449.32,283.741" style="fill:#e05a45;"/>
        <path d="M463.196,270.553C463.291,270.57 463.39,270.578 463.491,270.574C464.273,270.546 464.886,269.875 464.859,269.076C464.979,268.071 464.202,267.357 462.351,267.468C461.414,267.524 459.857,267.776 458.29,268.348C456.484,269.008 454.949,270.07 454.811,270.155C452.534,271.626 450.671,273.511 449.159,275.653C448.547,276.52 447.939,277.408 447.557,278.403C446.985,279.891 446.78,281.445 446.643,283.043C446.266,284.552 447.159,286.089 448.637,286.474C450.114,286.86 451.62,285.947 451.997,284.439C452.474,283.327 453.209,282.414 453.768,281.347C454.294,280.342 454.682,279.271 455.296,278.313C456.104,277.055 457.014,275.853 458.182,274.841C458.284,274.75 459.568,273.877 460.804,272.814C461.786,271.969 463.445,271.212 463.196,270.553ZM462.263,269.94C462.296,269.986 462.329,270.033 462.363,270.08L462.379,270.086C462.351,270.05 462.322,270.014 462.294,269.978L462.263,269.94Z" style="fill:#0e0000;"/>
    </g>
    <g transform="matrix(1.02115,0,0,1,-165.013,-17.9563)">
        <path d="M464.013,303.311C463.916,302.663 465.286,301.443 464.63,301.443C463.354,301.443 461.109,304.475 460.563,305.27C457.818,309.263 455.288,314.411 454.104,319.144" style="fill:#e05a45;"/>
        <path d="M464.371,304.846C465.022,304.689 465.49,304.123 465.55,303.461C465.564,303.495 465.586,303.526 465.618,303.552C465.866,303.759 466.156,303.131 466.368,302.934C467.043,302.306 466.808,301.512 466.853,301.086C466.951,300.15 466.221,299.789 464.63,299.227C463.8,299.022 462.729,299.524 461.478,300.234C459.958,301.097 458.453,302.806 457.911,303.369C455.928,305.797 453.992,308.646 452.462,311.677C452.054,312.488 451.597,313.285 451.378,314.152C451.016,315.59 451.045,316.943 451.043,318.346C450.611,320.072 451.633,321.83 453.323,322.271C455.013,322.711 456.735,321.668 457.166,319.942C457.638,319.101 458.303,318.472 458.756,317.563C459.244,316.584 459.543,315.493 459.955,314.446C460.954,311.906 461.965,309.358 463.215,307.171C463.401,306.773 463.83,305.73 464.371,304.846ZM465.003,303.758C465.009,303.755 465.006,303.745 464.994,303.727C464.981,303.706 464.99,303.724 465.003,303.758Z" style="fill:#0e0000;"/>
    </g>
    <g transform="matrix(1.02115,0,0,1,-169.474,0)">
        <path d="M543.319,518.391C562.743,492.079 538.545,475.941 538.545,475.941C538.545,475.941 526.707,467.381 507.219,475.576" style="fill:#e05a45;stroke:#0e0000;stroke-width:12.97px;"/>
    </g>
    <g transform="matrix(-0.0251787,-0.000269402,-0.0109806,1.02626,381.536,-14.2265)">
        <path d="M359.011,472.534C315.799,463.916 691.511,452.963 362.422,384.6" style="fill:none;stroke:#000;stroke-width:18.06px;"/>
    </g>
    <g transform="matrix(1.02115,0,0,1,-169.474,0)">
        <path d="M538.545,475.941C538.545,475.941 493.377,393.254 591.909,340.437" style="fill:#e05a45;stroke:#0e0000;stroke-width:12.97px;"/>
    </g>
    <g transform="matrix(1.02115,0,0,1,-169.474,0)">
        <path d="M548.016,482.861C548.016,482.861 556.394,463.556 583.713,470.112" style="fill:#e05a45;stroke:#0e0000;stroke-width:12.97px;"/>
    </g>
    <g transform="matrix(1.17585,0,0,1.37644,-245.716,-69.5475)">
        <path d="M473.723,163.807C473.723,163.807 476.086,180.876 498.407,174.048C498.407,174.048 501.543,196.786 528.065,187.332" style="fill:#e05a45;stroke:#0e0000;stroke-width:10.24px;"/>
    </g>
    <g transform="matrix(1.32434,0,0,0.991642,-300.338,0.866363)">
        <path d="M454.043,348.515C460.819,344.588 441.916,407.543 456.533,483.965" style="fill:#e05a45;stroke:#000;stroke-width:11.21px;"/>
    </g>
    <g id="Capa1">
    </g>
    <g id="Capa2">
    </g>
</svg>
