<?xml version="1.0" encoding="UTF-8" standalone="no"?>
<!DOCTYPE svg PUBLIC "-//W3C//DTD SVG 1.1//EN" "http://www.w3.org/Graphics/SVG/1.1/DTD/svg11.dtd">
<svg width="100%" height="100%" viewBox="0 0 800 800" version="1.1" xmlns="http://www.w3.org/2000/svg" xmlns:xlink="http://www.w3.org/1999/xlink" xml:space="preserve" xmlns:serif="http://www.serif.com/" style="fill-rule:evenodd;clip-rule:evenodd;stroke-linecap:round;stroke-linejoin:round;stroke-miterlimit:1.5;">
    <g id="Capa4">
        <g transform="matrix(1,0,0,1,4.23116,-57.5437)">
            <path d="M55.992,262.444C55.992,262.444 7.506,364.961 63.509,477.35L722.026,487.791C722.026,487.791 782.164,385.811 714.513,260.915L55.992,262.444Z" style="fill:#ffdb9b;stroke:#000;stroke-width:16.16px;"/>
        </g>
        <path d="M81.728,421.731C81.728,421.731 99.524,437.957 77.95,489.47L713.333,497.368C713.333,497.368 694.57,457.275 709.078,435.234L81.728,421.731Z" style="fill:#ffdb9b;stroke:#000;stroke-width:16.16px;"/>
        <path d="M109.268,267.391C110.244,268.975 112.458,272.518 114.101,274.795C117.999,280.197 123.23,284.239 130.329,284.239C136.136,284.239 141.423,281.933 146.572,278.748C151.302,275.822 155.774,271.659 161.556,271.134C164.916,270.828 168.475,271.885 172.119,272.85C177.384,274.245 182.751,275.644 187.939,275.644C190.915,275.644 193.542,274.677 195.953,273.089C196.863,272.49 198.262,271.41 199.239,270.638L203.476,274.895C207.037,278.48 211.181,281.222 216.062,281.71C221.812,282.285 226.029,280.455 229.775,277.84C231.179,276.861 232.49,275.747 233.862,274.761C234.55,274.265 235.196,273.657 236.156,273.657C236.822,273.657 237.129,274.368 237.639,274.78C238.483,275.463 239.316,276.192 240.178,276.884C243.29,279.383 246.744,281.33 250.995,281.717C256.009,282.172 260.467,280.587 264.694,278.124C266.408,277.125 268.086,275.982 269.793,274.938C271.215,274.068 272.603,273.149 274.231,273.001C292.202,271.368 317.413,276.147 337.004,276.147C341.419,276.147 345.004,272.562 345.004,268.147C345.004,263.731 341.419,260.147 337.004,260.147C316.963,260.147 291.166,255.396 272.783,257.067C268.364,257.469 264.362,259.44 260.523,261.862C259.017,262.812 257.533,263.825 256,264.661C254.878,265.273 253.764,265.902 252.443,265.782C251.694,265.714 251.184,265.174 250.626,264.746C249.502,263.885 248.443,262.925 247.356,262.064C244.045,259.442 240.465,257.657 236.156,257.657C231.12,257.657 227.275,259.679 223.706,262.372C222.759,263.086 221.833,263.847 220.863,264.546C219.964,265.194 219.048,265.928 217.654,265.789C216.309,265.655 215.527,264.341 214.555,263.342C212.891,261.631 211.323,259.821 209.74,258.393C206.54,255.506 203.072,253.922 199.428,253.922C196.448,253.922 193.82,254.888 191.41,256.473C190.152,257.3 187.967,259.041 187.237,259.628C182.651,259.47 177.94,257.776 173.338,256.643C168.795,255.524 164.331,254.816 160.108,255.199C152.923,255.853 146.762,259.56 140.871,263.402C137.412,265.657 134.22,268.239 130.329,268.239C128.531,268.239 127.768,266.436 126.805,265.05C125.183,262.715 123.843,260.194 122.53,258.281C118.854,252.925 114.284,251.02 109.971,251.847C105.635,252.679 102.79,256.874 103.621,261.211C104.208,264.268 106.466,266.584 109.268,267.391Z"/>
        <path d="M414.977,257.769C412.86,256.951 410.41,257.035 408.264,258.206C404.388,260.32 402.957,265.183 405.071,269.06C405.835,270.46 407.204,272.079 409.718,273.015C410.768,273.407 412.588,273.763 414.777,273.818C417.095,273.875 421.488,273.67 422.206,273.636C426.611,274.282 431.204,277.144 435.772,278.175C441.237,279.409 446.618,279.008 451.839,275.279C455.585,272.603 459.539,266.214 463.462,260.27C464.564,258.602 465.679,256.997 466.855,255.685C467.179,255.324 467.696,254.871 468.058,254.57C468.134,254.673 468.201,254.795 468.292,254.889C468.731,255.348 469.128,255.886 469.512,256.467C471.529,259.51 473.096,263.446 474.786,266.924C476.757,270.979 478.962,274.522 481.442,276.792C484.239,279.353 487.438,280.698 491.071,280.698C499.371,280.698 505.681,277.179 511.607,273.158C515.051,270.821 518.192,268.069 522.315,267.444C523.032,267.621 526.476,268.487 528.951,269.286C535.904,271.531 544.385,274.433 549.18,274.869C552.645,275.184 556.011,274.668 559.35,273.936C562.089,273.336 564.775,272.307 567.633,272.879C589.37,277.226 613.267,275.524 635.811,275.524C640.226,275.524 643.811,271.94 643.811,267.524C643.811,263.109 640.226,259.524 635.811,259.524C614.307,259.524 591.505,261.336 570.771,257.19C567.06,256.447 563.467,256.743 559.906,257.441C556.829,258.045 553.818,259.225 550.628,258.935C545.869,258.502 536.922,254.932 530.656,253.055C526.372,251.772 522.824,251.279 521.007,251.48C515.148,252.131 510.216,254.795 505.436,258.005C501.366,260.737 497.558,264.294 492.025,264.664C491.522,263.964 490.429,262.401 489.836,261.251C488.333,258.334 486.93,254.992 485.357,251.953C481.203,243.926 475.373,238.359 467.732,238.359C463.278,238.359 458.83,240.673 454.947,244.999C452.2,248.061 449.596,252.244 447.109,256.131C445.494,258.653 444.132,261.121 442.539,262.259C441.677,262.875 440.761,262.834 439.86,262.681C438.404,262.432 436.949,261.887 435.488,261.323C431.581,259.817 427.657,258.188 423.903,257.718C422.907,257.594 416.833,257.725 414.977,257.769Z"/>
        <path d="M107.255,351.794C108.694,352.371 114.019,354.439 118.356,355.328C121.376,355.947 124.322,356.11 126.664,355.72C130.484,355.083 134.13,353.666 137.747,352.189C141.111,350.816 144.389,349.14 148.121,349.555C150.946,349.868 153.322,351.09 155.845,352.115C159.943,353.78 164.244,355.206 169.547,355.206C173.962,355.206 177.547,351.621 177.547,347.206C177.547,342.791 173.962,339.206 169.547,339.206C165.748,339.206 162.881,337.703 159.972,336.514C156.755,335.2 153.523,334.056 149.888,333.652C144.3,333.032 139.149,334.429 134.102,336.408C130.781,337.711 127.535,339.354 124.033,339.937C122.926,340.122 121.47,339.67 120.043,339.293C116.444,338.341 113.066,336.869 112.346,336.607C108.218,335.107 105.627,337.049 105.261,337.274C102.22,339.151 100.948,341.861 101.582,345.469C101.698,346.133 101.928,348.663 105.025,350.748C105.729,351.222 106.481,351.569 107.255,351.794ZM114.359,337.764C115.824,338.884 116.803,340.429 117.235,342.108C117.042,341.124 116.48,339.343 114.359,337.764Z"/>
        <path d="M271.27,344.69C267.579,346.676 261.337,347.363 254.604,347.567C243.264,347.91 230.505,346.441 224.023,343.817C219.93,342.161 215.262,344.139 213.606,348.231C211.949,352.324 213.927,356.992 218.02,358.649C225.887,361.833 241.326,363.977 255.089,363.559C264.98,363.26 273.999,361.516 279.296,358.537C281.569,357.259 283.849,354.972 285.864,351.878C287.776,348.944 289.594,345.124 291.469,341.574C292.246,340.103 293.565,338.16 294.387,336.996C295.754,337.83 296.803,339.153 297.894,340.466C299.657,342.59 301.323,344.909 303.152,347.044C307.395,351.996 312.444,355.959 319.687,356.993C327.357,358.089 334.771,355.839 342.093,352.385C349.815,348.742 357.328,343.238 365.646,343.238C366.4,343.238 366.805,343.933 367.344,344.435C368.583,345.59 369.735,346.944 370.935,348.221C374.315,351.818 378.102,354.745 382.746,355.673C386.31,356.386 390.913,355.231 395.469,353.167C396.868,352.533 399.044,351.658 400.292,351.167C400.623,351.558 400.929,351.975 401.255,352.365C402.305,353.62 403.379,354.823 404.573,355.842C407.501,358.339 411.022,359.985 416.144,359.533C420.05,359.188 423.584,357.319 426.942,354.942C428.064,354.149 429.167,353.3 430.325,352.615C430.516,352.502 430.698,352.364 430.889,352.251C431.658,353.28 432.995,355.041 433.881,356.068C435.83,358.329 438.138,360.092 440.924,361.021C445.012,362.383 448.921,362.188 452.799,361.267C455.878,360.536 458.873,358.941 462.129,358.941C466.545,358.941 470.129,355.357 470.129,350.941C470.129,346.526 466.545,342.941 462.129,342.941C458.738,342.941 455.475,343.803 452.266,344.79C450.285,345.4 448.388,346.459 446.322,345.937C446.028,345.587 445.11,344.483 444.64,343.836C443.816,342.701 442.986,341.599 442.104,340.651C439.836,338.209 437.176,336.627 434.002,336.174C429.245,335.494 425.118,336.95 421.285,339.394C419.881,340.29 418.519,341.325 417.138,342.274C416.389,342.789 415.725,343.442 414.878,343.576C414.677,343.383 414.354,343.064 414.168,342.852C413.752,342.377 413.347,341.881 412.933,341.39C411.494,339.685 409.933,338.07 408.05,336.815C404.817,334.659 400.717,334.216 396.14,335.59C393.56,336.364 390.684,337.817 387.926,339.01C387.187,339.33 385.965,339.722 385.49,339.869C384.556,339.511 383.908,338.623 383.158,337.854C381.791,336.452 380.486,334.926 379.117,333.564C375.334,329.799 371.033,327.238 365.646,327.238C356.535,327.238 347.898,331.535 339.435,335.85C333.638,338.806 328.02,342.021 321.95,341.154C319.344,340.782 317.617,339.186 316.038,337.465C314.298,335.569 312.763,333.432 311.165,331.428C307.181,326.433 302.722,322.297 296.613,320.77C291.128,319.398 285.984,321.539 281.765,326.935C279.24,330.165 276.947,334.878 274.697,339.192C273.857,340.805 273.026,342.345 272.145,343.611C271.886,343.983 271.411,344.53 271.27,344.69Z"/>
        <path d="M530.756,353.792C536.867,353.76 550.711,355.984 564.437,354.54C567.449,354.223 571.063,353.149 574.679,352.325C576.579,351.892 578.466,351.325 580.077,351.786C581.053,352.065 581.724,352.707 582.423,353.236C583.686,354.191 584.923,355.117 586.261,355.864C589.467,357.653 593.14,358.703 598.391,357.491C603.146,356.394 608.132,353.856 613.193,351.904C616.213,350.739 619.246,349.602 622.328,350.518C623.393,350.834 624.145,351.65 624.957,352.4C626.144,353.498 627.295,354.673 628.515,355.755C631.605,358.495 635.093,360.649 639.575,361.338C645.025,362.177 649.757,361.122 654.392,359.572C657.281,358.606 660.095,357.332 663.303,357.041C669.073,356.516 674.459,358.319 680.009,358.319C684.425,358.319 688.009,354.734 688.009,350.319C688.009,345.903 684.425,342.319 680.009,342.319C673.982,342.319 668.12,340.537 661.855,341.107C658.104,341.447 654.679,342.541 651.304,343.715C648.349,344.743 645.486,346.059 642.007,345.524C639.46,345.132 638.167,342.876 636.471,341.264C633.647,338.579 630.616,336.288 626.883,335.179C621.483,333.576 616.075,334.134 610.745,335.81C605.263,337.533 599.907,340.721 594.794,341.901C593.911,342.105 593.484,341.533 592.98,341.158C592.403,340.729 591.828,340.282 591.232,339.847C589.279,338.424 587.131,337.161 584.472,336.401C581.146,335.451 577.33,335.53 573.425,336.248C569.708,336.931 565.873,338.3 562.762,338.628C548.885,340.088 534.886,337.59 529.369,337.82C523.202,338.078 520.578,341.603 519.755,343.819C518.218,347.958 520.332,352.566 524.471,354.103C526.603,354.894 528.86,354.718 530.756,353.792ZM534.593,349.788L534.585,349.806L534.592,349.791L534.593,349.788Z"/>
        <path d="M95.627,433.863C95.325,433.829 95.016,433.823 94.702,433.844C90.871,434.102 90.085,436.946 90.007,437.135C89.841,437.535 88.969,444.236 94.754,444.52C95.282,444.546 98.01,444.534 98.639,444.534C99.804,444.534 103.216,444.267 103.873,444.214C105.774,445.017 108.849,445.661 112.493,446.011C120.08,446.741 130.573,446.557 135.062,446.557C162.119,446.557 189.651,448.244 217.015,448.244C219.96,448.244 222.351,445.853 222.351,442.908C222.351,439.964 219.96,437.573 217.015,437.573C189.651,437.573 162.119,435.887 135.062,435.887C130.776,435.887 120.758,436.086 113.514,435.389C111.167,435.164 109.177,434.961 108.107,434.426C107.075,433.91 105.629,433.56 103.964,433.524C102.181,433.485 99.919,433.863 98.639,433.863L95.627,433.863ZM99.372,442.307C98.474,443.539 97.058,444.38 95.42,444.49C97.693,444.337 98.823,443.199 99.372,442.307ZM100.099,437.412C100.186,437.66 100.255,437.916 100.303,438.18C100.26,437.923 100.193,437.667 100.099,437.412Z"/>
        <path d="M94.3,460.394C111.943,459.955 129.842,461.734 147.541,461.734C150.485,461.734 152.876,459.343 152.876,456.399C152.876,453.454 150.485,451.063 147.541,451.063C129.754,451.063 111.766,449.286 94.035,449.726C91.091,449.799 88.761,452.249 88.834,455.193C88.907,458.136 91.356,460.467 94.3,460.394Z"/>
        <path d="M161.286,450.714C161.065,450.701 160.841,450.702 160.615,450.718C158.068,450.898 157.137,452.332 156.985,452.504C155.116,454.613 155.144,456.75 156.439,458.846C156.529,458.992 157.595,461.243 160.788,461.376C161.112,461.389 163.66,461.397 164.403,461.397C166.498,461.397 169.069,460.884 171.114,461.293C179.419,462.954 188.53,462.746 197.117,462.746C200.062,462.746 202.452,460.355 202.452,457.41C202.452,454.466 200.062,452.075 197.117,452.075C189.222,452.075 180.842,452.357 173.207,450.83C170.524,450.293 167.151,450.726 164.403,450.726L161.286,450.714ZM165.332,459.141C164.439,460.39 163.017,461.246 161.368,461.362C163.493,461.212 164.69,460.302 165.332,459.141Z"/>
        <path d="M558.229,454.749C559.059,454.737 561.353,454.707 561.98,454.707C565.257,454.707 568.532,455.435 571.813,455.435C582.539,455.435 593.376,456.163 604.226,456.163C636.132,456.163 667.904,457.62 699.644,457.62C702.588,457.62 704.979,455.229 704.979,452.285C704.979,449.34 702.588,446.949 699.644,446.949C667.904,446.949 636.132,445.493 604.226,445.493C593.376,445.493 582.539,444.764 571.813,444.764C568.532,444.764 565.257,444.036 561.98,444.036C560.743,444.036 556.368,444.187 555.914,444.308C552.07,445.34 551.897,448.498 551.935,449.652C551.967,450.634 552.122,453.516 555.77,454.608C556.595,454.855 557.434,454.892 558.229,454.749ZM562.347,447.775C562.784,448.926 562.788,450.064 562.358,451.188L562.411,451.026C562.742,449.92 562.697,448.79 562.347,447.775ZM559.113,444.479C560.114,444.84 560.947,445.475 561.551,446.275C561.152,445.704 560.448,444.945 559.113,444.479Z"/>
        <path d="M567.894,469.647C584.042,468.45 600.962,470.003 617.337,470.003C620.282,470.003 622.672,467.612 622.672,464.667C622.672,461.723 620.282,459.332 617.337,459.332C600.701,459.332 583.511,457.79 567.106,459.005C564.169,459.223 561.961,461.783 562.179,464.72C562.397,467.657 564.957,469.864 567.894,469.647Z"/>
        <path d="M694.329,472.507C696.38,473.754 699.094,473.49 700.867,471.718C702.949,469.635 702.949,466.254 700.867,464.172C699.988,463.293 698.272,462.304 695.787,461.909C691.475,461.223 682.915,461.881 680.706,461.881C669.393,461.881 658.228,460.789 646.836,460.789C644.753,460.789 641.741,461.178 638.779,461.366C636.92,461.484 635.076,461.706 633.892,461.166C631.213,459.945 628.046,461.13 626.825,463.809C625.604,466.489 626.788,469.655 629.467,470.877C631.512,471.809 634.423,472.187 637.57,472.103C640.858,472.015 644.477,471.459 646.836,471.459C658.228,471.459 669.393,472.552 680.706,472.552C682.115,472.552 686.259,472.239 690.057,472.235C691.578,472.233 693.692,472.44 694.329,472.507Z"/>
        <path d="M530.824,444.055C528.613,442.915 525.83,443.45 524.216,445.467C522.377,447.766 522.75,451.127 525.05,452.966C526.013,453.737 527.893,454.531 530.326,454.752C533.044,454.999 536.915,454.732 538.371,454.732C541.315,454.732 543.706,452.341 543.706,449.397C543.706,446.452 541.315,444.061 538.371,444.061L530.824,444.055Z"/>
    </g>
</svg>
