<?xml version="1.0" encoding="UTF-8" standalone="no"?>
<!DOCTYPE svg PUBLIC "-//W3C//DTD SVG 1.1//EN" "http://www.w3.org/Graphics/SVG/1.1/DTD/svg11.dtd">
<svg width="100%" height="100%" viewBox="0 0 2048 1536" version="1.1" xmlns="http://www.w3.org/2000/svg" xmlns:xlink="http://www.w3.org/1999/xlink" xml:space="preserve" xmlns:serif="http://www.serif.com/" style="fill-rule:evenodd;clip-rule:evenodd;stroke-linecap:round;stroke-linejoin:round;stroke-miterlimit:1.5;">
    <g transform="matrix(2.05163,0,0,2.33344,190.946,-131.304)">
        <g id="Capa3">
            <path d="M718.249,335.502L789.139,390.359L788.613,703.426L767.242,702.987L723.911,647.79L75.201,646.211L35.695,701.602L17.427,702.096L13.789,397.736L88.23,339.183L718.249,335.502" style="fill:rgb(81,81,81);stroke:black;stroke-width:9.16px;"/>
        </g>
    </g>
    <g id="Capa2" transform="matrix(0.704916,0,0,2.13561,444.16,-543.111)">
        <g transform="matrix(2.91046,0,0,0.994691,-359.211,261.725)">
            <path d="M86.451,304.792L14.112,368.028L16.838,703.738L36.108,702.941L76.513,639.972L723.041,640.401L765.589,703.43L788.509,703.583L791.021,360.341L715.438,299.158L86.451,304.792Z" style="fill:none;stroke:black;stroke-width:9.64px;"/>
        </g>
        <g transform="matrix(2.91037,0.00327489,0.00958231,0.66369,-362.032,359.151)">
            <path d="M711.96,640.013L712.234,422.902" style="fill:none;stroke:black;stroke-width:11.37px;"/>
        </g>
        <g transform="matrix(2.91046,0,0,0.994691,-359.211,261.725)">
            <path d="M85.667,391.978L87.047,522.947" style="fill:none;stroke:black;stroke-width:9.64px;"/>
        </g>
        <g transform="matrix(2.87585,0.000117057,0.000342509,0.99469,-346.514,261.682)">
            <path d="M791.021,360.341L14.112,368.028" style="fill:none;stroke:black;stroke-width:9.69px;"/>
        </g>
        <g transform="matrix(2.89756,5.10524e-06,1.49379e-05,0.994691,-349.072,261.721)">
            <path d="M15.958,620.654L786.888,619.761" style="fill:none;stroke:black;stroke-width:9.66px;"/>
        </g>
        <g transform="matrix(2.91046,0,0,0.994691,-359.211,261.725)">
            <path d="M35.461,701.1L35.512,640.302L766.811,639.745L767.311,700.089" style="fill:none;stroke:black;stroke-width:9.64px;"/>
        </g>
        <g transform="matrix(2.91902,0,0,0.994691,-359.515,261.725)">
            <path d="M35.753,389.89L35.398,603.066L766.48,599.811L766.553,379.733L35.753,389.89Z" style="fill:none;stroke:black;stroke-width:9.62px;"/>
        </g>
        <g transform="matrix(2.91046,0,0,0.994691,-360.33,249.6)">
            <path d="M85.295,537.682L709.695,537.258L85.295,537.682Z" style="fill:none;stroke:black;stroke-width:9.64px;"/>
        </g>
        <g transform="matrix(2.91046,0,0,0.994691,-359.211,261.725)">
            <path d="M39.352,597.869L84.91,525.492" style="fill:none;stroke:black;stroke-width:9.64px;"/>
        </g>
        <g transform="matrix(2.86216,-0.0219764,-0.064303,0.965435,-290.843,292.831)">
            <path d="M712.475,528.033L766.14,599.474" style="fill:none;stroke:black;stroke-width:10.09px;"/>
        </g>
    </g>
    <g id="Games" transform="matrix(1.12787,0,0,1.29991,455.378,-536.482)">
        <g transform="matrix(0.819096,0,0,0.742563,588.067,1003.62)">
            <path d="M193.444,102.436L192.518,406.692L275.57,535.209L693.855,531.72L694.373,201.877L596.115,96.974L193.444,102.436Z" style="fill:rgb(174,0,255);stroke:black;stroke-width:21.3px;"/>
        </g>
        <g transform="matrix(0.832902,0,0,0.783933,579.797,994.033)">
            <path d="M631.992,155.007L589.424,112.544L292.212,116.478" style="fill:none;stroke:black;stroke-width:20.53px;"/>
        </g>
        <g transform="matrix(1.10534,0,0,0.783933,406.909,995.064)">
            <ellipse cx="631.591" cy="168.823" rx="16.659" ry="12.635" style="fill:none;stroke:black;stroke-width:17.67px;"/>
        </g>
        <g transform="matrix(0.96657,0,0,0.680722,533.391,1009.01)">
            <ellipse cx="305.643" cy="171.71" rx="13.311" ry="12.064" style="fill:none;stroke:black;stroke-width:20.27px;"/>
        </g>
        <g transform="matrix(0.942308,0,0,0.785272,547.39,991.569)">
            <ellipse cx="274.728" cy="131.465" rx="21.485" ry="16.011" style="fill:none;stroke:black;stroke-width:19.31px;"/>
        </g>
        <g transform="matrix(0.913551,0,0,1.2003,547.008,925.487)">
            <ellipse cx="441.8" cy="149.559" rx="83.093" ry="15.43" style="fill:rgb(174,0,255);stroke:black;stroke-width:15.22px;"/>
        </g>
        <g transform="matrix(0.753879,0,0,0.702915,675.779,1018.9)">
            <ellipse cx="377.008" cy="367.444" rx="21.173" ry="20.916" style="stroke:black;stroke-width:22.8px;"/>
        </g>
        <g transform="matrix(0.754401,0,0,0.702915,729.804,1018.74)">
            <ellipse cx="377.008" cy="367.444" rx="21.173" ry="20.916" style="stroke:black;stroke-width:22.79px;"/>
        </g>
        <g transform="matrix(0.753879,0,0,0.702915,785.258,1021.54)">
            <ellipse cx="377.008" cy="367.444" rx="21.173" ry="20.916" style="stroke:black;stroke-width:22.8px;"/>
        </g>
        <g transform="matrix(0.832902,0,0,0.783933,583.068,991.779)">
            <path d="M339.14,303.907L338.518,446.489" style="fill:none;stroke:black;stroke-width:20.53px;"/>
        </g>
        <g transform="matrix(0.832902,0,0,0.783933,583.068,991.779)">
            <path d="M339.14,303.907L630.76,303.712L632.356,448.959" style="fill:none;stroke:black;stroke-width:20.53px;"/>
        </g>
        <g transform="matrix(0.832902,0,0,0.783933,583.068,991.779)">
            <path d="M368.735,421.471L367.753,440.872L464.816,441.008L465.161,422.068L368.735,421.471Z" style="fill:none;stroke:black;stroke-width:20.53px;"/>
        </g>
        <g transform="matrix(0.832902,0,0,0.86272,583.068,957.051)">
            <path d="M492.45,423.301L493.273,440.788L596.907,440.122L596.591,423.773L492.45,423.301Z" style="fill:none;stroke:black;stroke-width:19.45px;"/>
        </g>
        <g transform="matrix(0.832902,0,0,0.783933,583.068,991.779)">
            <path d="M282.832,453.25L693.903,453.009" style="fill:none;stroke:black;stroke-width:20.53px;"/>
        </g>
        <g transform="matrix(0.832902,0,0,0.783933,579.797,994.033)">
            <path d="M315.886,172.798L604.958,172.457" style="fill:none;stroke:black;stroke-width:20.53px;"/>
        </g>
        <g transform="matrix(0.729896,-0.0928449,-0.0986444,0.695019,626.224,1032.45)">
            <path d="M289.972,160.007L275.871,146.503" style="fill:none;stroke:black;stroke-width:26.89px;"/>
        </g>
        <g transform="matrix(0.832902,0,0,0.783933,583.068,991.779)">
            <path d="M215.201,253.531L258.395,295.977" style="fill:none;stroke:black;stroke-width:20.53px;"/>
        </g>
        <g transform="matrix(0.832902,0,0,0.783933,583.068,991.779)">
            <path d="M212.508,276.996L255.019,317.363" style="fill:none;stroke:black;stroke-width:20.53px;"/>
        </g>
        <g transform="matrix(0.832902,0,0,0.783933,583.068,991.779)">
            <path d="M210.168,301.421L251.968,342.811" style="fill:none;stroke:black;stroke-width:20.53px;"/>
        </g>
        <g transform="matrix(0.786926,0,0,0.777105,595.957,995.379)">
            <path d="M195.439,107.494L280.339,200.78L278.221,528.388" style="fill:none;stroke:black;stroke-width:21.16px;"/>
        </g>
        <g transform="matrix(0.832902,0,0,0.783933,583.068,991.779)">
            <path d="M281.854,205.74L696.379,204.565" style="fill:none;stroke:black;stroke-width:20.53px;"/>
        </g>
        <g transform="matrix(0.832902,0,0,0.783933,583.068,991.779)">
            <path d="M146.63,412.887C146.63,412.887 152.527,402.484 165.188,403.377" style="fill:none;stroke:black;stroke-width:20.53px;"/>
        </g>
        <g transform="matrix(1.6675,0,0,1.49061,-228.945,-1037.66)">
            <path d="M564.727,1594.99C564.741,1592 544.443,1611.95 544.443,1611.95C544.443,1611.95 552.365,1630.06 544.643,1632.43C536.922,1634.8 516.908,1623.26 513.77,1594.18C513.77,1594.18 508.944,1583.94 507.624,1573.84C507.072,1569.62 507.133,1565.42 508.417,1562C510.153,1557.39 512.742,1554.95 515.196,1552.73C523.75,1544.98 530.527,1549.15 536.64,1547.74C536.64,1547.74 551.964,1533.48 568.448,1539.4C568.448,1539.4 574.409,1521.03 594.464,1523.76C594.464,1523.76 612.211,1538.24 607.889,1555.79C607.889,1555.79 629.78,1575.78 630.888,1604.68C630.888,1604.68 627.573,1623.22 604.564,1591.87C604.564,1591.87 564.712,1597.98 564.727,1594.99Z" style="fill:rgb(174,0,255);stroke:rgb(174,0,255);stroke-width:10.54px;"/>
        </g>
        <g transform="matrix(0.832902,0,0,0.783933,583.068,991.779)">
            <path d="M43.815,430.134C43.815,430.134 35.312,488.624 88.901,521.205C88.901,521.205 110.908,535.933 126.699,518.758C126.699,518.758 136.362,503.94 119.746,487.64C103.13,471.339 102.699,458.01 102.699,458.01" style="fill:none;stroke:black;stroke-width:20.53px;"/>
        </g>
        <g transform="matrix(0.832902,0,0,0.783933,583.068,991.779)">
            <path d="M137.91,401.947C137.91,401.947 148.949,386.177 166.677,388.376" style="fill:none;stroke:black;stroke-width:20.53px;"/>
        </g>
        <g transform="matrix(0.832902,0,0,0.783933,583.068,991.779)">
            <path d="M173.121,320.99C173.121,320.99 150.085,351.582 171.289,382.217C171.289,382.217 161.782,425.309 181.297,436.173C181.297,436.173 202.52,450.061 223.654,428.468C223.654,428.468 234.731,417.751 230.698,389.131C230.698,389.131 259.333,365.491 244.877,331.567C244.877,331.567 220.194,282.435 173.121,320.99" style="fill:none;stroke:black;stroke-width:20.53px;"/>
        </g>
        <g transform="matrix(0.932226,0,0,0.813635,560.309,980.946)">
            <path d="M249.648,364.724C249.648,364.724 307.221,423.467 284.79,461.941C262.359,500.414 239.346,419.453 229.139,428.973" style="fill:none;stroke:black;stroke-width:19.08px;"/>
        </g>
        <g transform="matrix(0.832902,0,0,0.783933,583.068,991.779)">
            <path d="M111.629,476.43C111.629,476.43 139.86,488.799 155.082,458.992L151.421,434.604" style="fill:none;stroke:black;stroke-width:20.53px;"/>
        </g>
        <g transform="matrix(0.832902,0,0,0.783933,583.068,991.779)">
            <path d="M167.035,411.8L167.635,445.582C167.635,445.582 188.664,468.138 225.003,449.533L230.012,414.044" style="fill:none;stroke:black;stroke-width:20.53px;"/>
        </g>
        <g transform="matrix(0.839767,0,0,0.783006,582.83,992.105)">
            <path d="M83.805,352.195C48.412,348.673 25.628,381.757 38.279,416.179C38.279,416.179 49.732,441.11 82.033,436.739L106.237,457.074C106.237,457.074 120.734,470.776 138.385,455.618C157.582,439.134 149.84,426.189 141.52,414.296L120.654,389.867C120.654,389.867 119.198,355.717 83.805,352.195Z" style="fill:none;stroke:black;stroke-width:20.47px;"/>
        </g>
        <g transform="matrix(0.832902,0,0,0.783933,582.539,990.727)">
            <ellipse cx="78.6" cy="396.099" rx="16.986" ry="17.038" style="fill:rgb(174,0,255);stroke:black;stroke-width:20.53px;"/>
        </g>
        <g transform="matrix(0.832902,0,0,0.783933,583.068,991.779)">
            <ellipse cx="141.229" cy="367.546" rx="6.444" ry="6.435" style="fill:rgb(174,0,255);stroke:black;stroke-width:20.53px;"/>
        </g>
        <g transform="matrix(0.832902,0,0,0.783933,583.068,991.779)">
            <ellipse cx="205.512" cy="354.458" rx="12.942" ry="12.985" style="fill:rgb(174,0,255);stroke:black;stroke-width:20.53px;"/>
        </g>
        <g transform="matrix(0.832902,0,0,0.783933,583.068,991.779)">
            <ellipse cx="185.141" cy="372.455" rx="6.013" ry="6.124" style="fill:rgb(174,0,255);stroke:black;stroke-width:20.53px;"/>
        </g>
        <g transform="matrix(0.595232,0,0,0.594032,629.78,1069.65)">
            <ellipse cx="202.4" cy="405.161" rx="9.948" ry="10.058" style="fill:rgb(148,82,218);stroke:black;stroke-width:27.81px;"/>
        </g>
        <g transform="matrix(0.487076,0,0,0.566997,652.242,1061.96)">
            <path d="M204.129,348.152C206.436,348.194 210.869,348.208 213.217,347.791C219.822,346.615 225.018,343.762 228.04,338.726C229.581,336.157 231.139,333 230.491,327.371C228.851,313.123 213.561,309.079 204.785,308.324C200.613,307.965 191.103,309.494 189.737,309.882C182.921,311.82 175.722,316.426 171.98,322.004C167.038,329.37 167.143,337.844 175.785,345.045C182.718,350.823 197.52,349.23 204.129,348.152ZM204.993,348.007L205.015,348.005C205.762,347.922 207.439,347.538 207.439,347.538C207.439,347.538 206.526,347.743 204.993,348.007ZM198.006,324.617C199.932,325.055 201.775,325.752 203.086,326.845C206.604,329.777 206.454,334.349 202.79,335.391C202.592,335.447 201.193,335.497 200.587,335.445C198.133,335.234 194.455,333.689 193.997,329.705C193.875,328.642 194.312,328.065 194.603,327.58C195.267,326.474 196.526,325.476 198.006,324.617Z"/>
        </g>
        <g transform="matrix(1.36494,0,0,0.711007,462.713,1018.81)">
            <path d="M234.343,335.007C233.824,334.476 230.439,334.131 228.574,334.764C226.65,335.418 225.511,336.832 225.041,338.949C224.351,342.051 228.324,342.563 227.655,348.184C226.83,355.11 225.433,357.77 226.014,358.99C227.094,361.26 229.343,361.611 230.3,361.802C233.757,362.494 238.225,358.86 238.983,355.597C242.253,341.517 237.4,336.27 234.343,335.007Z" style="fill:rgb(174,0,255);"/>
            <path d="M220.852,348.927C220.189,353.219 219.456,355.634 219.376,357.038C219.169,360.674 219.787,363.43 220.893,365.753C223.135,370.464 227.534,372.213 229.521,372.61C233.492,373.405 238.3,370.866 241.24,367.347C243.23,364.965 244.489,362.062 245.078,359.524C247.755,347.999 246.553,340.101 244.61,334.814C242.497,329.063 239.093,325.912 236.308,324.614L236.314,324.617C235.889,324.373 235.392,324.149 234.826,323.988C233.075,323.489 229.457,323.354 227.268,324.099C222.528,325.709 220.071,329.956 218.912,335.17C217.856,339.921 218.399,343.748 219.949,347.274C220.137,347.702 220.489,348.323 220.852,348.927Z"/>
        </g>
        <g transform="matrix(0.665603,0,0,0.698219,604.547,1031.38)">
            <path d="M106.974,408.812C106.045,409.129 99.233,415.712 99.378,415.931C100.498,417.61 105.695,421.877 105.562,422.408C105.374,423.162 99.06,428.921 99.584,429.514C100.569,430.627 107.451,437.865 108.359,437.249C110.253,435.963 113.635,431.315 114.314,431.541C114.925,431.745 121.052,438.422 121.752,438.189C122.804,437.838 127.348,430.898 128.44,429.806C128.719,429.527 124.008,424.789 122.314,423.094C122.132,422.912 126.437,418.527 127.665,417.103C128.425,416.222 121.021,409.788 120.065,409.469C119.461,409.268 115.125,414.505 113.877,415.129C113.546,415.294 106.974,407.748 106.974,408.812Z"/>
            <path d="M97.525,400.888C97.198,401.123 96.864,401.38 96.526,401.658C94.136,403.623 89.45,408.23 88.434,409.47C83.615,415.355 87.015,420.343 87.642,421.283C87.854,421.602 88.241,422.066 88.732,422.605C87.632,424.039 87.032,425.297 86.737,426.118C85.074,430.743 86.979,434.038 88.77,436.061C89.627,437.029 94.195,441.817 97.084,444.153C99.003,445.705 100.812,446.67 101.958,447.14C106.938,449.186 111.024,448.624 114.058,447.343C119.543,450.369 124.336,449.279 126.762,448.47C128.038,448.045 130.086,447.189 132.126,445.315C133.631,443.932 138.584,437.239 139.145,436.478C140.851,434.649 143.8,430.516 140.453,424.778C140.247,424.425 139.729,423.771 139.04,422.966C140.723,420.78 142.068,417.543 140.426,413.302C139.729,411.504 136.168,407.068 132.616,403.992C129.348,401.161 125.918,399.469 125.074,399.188C122.85,398.446 118.89,397.561 114.344,399.374C112.793,398.564 111.421,398.192 110.484,397.989C104.799,396.759 100.693,398.373 97.73,400.723L97.525,400.888ZM120.338,409.649C120.191,411.267 119.619,412.809 118.693,414.182C119.511,413.017 120.186,411.542 120.338,409.649ZM120.338,409.646C120.365,409.376 120.376,409.098 120.376,408.812L120.338,409.646Z"/>
        </g>
        <g transform="matrix(0.870073,0,0,0.783785,569.403,991.852)">
            <path d="M361.529,368.248L381.933,398.951C381.933,398.951 390.484,412.293 403.806,410.247C416.781,408.254 428.179,397.016 415.547,376.575L397.352,350.673L361.529,368.248Z" style="stroke:black;stroke-width:20.12px;"/>
        </g>
        <g transform="matrix(0.72307,0,0,0.616102,602.672,1033.92)">
            <path d="M390.596,402.197C376.021,381.104 413.666,351.458 432.259,377.61" style="fill:none;stroke:black;stroke-width:24.9px;"/>
        </g>
        <g transform="matrix(0.72307,0,0,0.616102,602.672,1033.92)">
            <path d="M390.596,402.197L432.259,377.61" style="fill:none;stroke:black;stroke-width:24.9px;"/>
        </g>
        <g transform="matrix(0.832902,0,0,0.783933,583.068,991.779)">
            <path d="M251.782,573.442C249.559,574.104 247.322,574.873 245.074,575.736C229.461,581.73 213.062,592.398 197.153,600.669C184.458,607.269 172.402,612.887 161.386,609.818C154.583,607.923 148.806,602.412 143.352,592.594C140.046,586.644 139.997,578.888 140.772,572.297C142.879,554.384 149.603,546.624 157.394,538.483C163.897,531.688 170.959,524.649 177.427,513.561C182.214,505.356 183.939,495.275 183.811,484.646C183.647,471.032 180.464,456.449 179.103,445C178.459,439.583 173.165,435.667 167.289,436.261C161.414,436.855 157.166,441.735 157.81,447.151C158.904,456.349 161.267,467.64 162.111,478.743C162.815,488.007 162.671,497.165 158.562,504.209C151.464,516.378 143.361,522.86 136.652,530.476C128.503,539.727 121.822,550.231 119.477,570.168C118.273,580.404 119.153,592.354 124.286,601.595C133.249,617.728 144.01,625.605 155.19,628.72C171.153,633.166 189.278,627.433 207.676,617.868C215.141,613.987 222.706,609.54 230.243,605.336C222.037,628.709 228.684,653.198 252.878,670.479C262.718,677.508 274.846,681.771 287.115,680.827C298.506,679.951 308.743,673.236 316.137,663.279C325.912,650.116 330.504,631.48 327.674,618.273C322.905,596.017 304.935,578.696 283.454,572.479C295.812,562.633 309.413,554.758 324.965,549.574C339.639,544.683 354.258,544.514 367.58,542.029C384.047,538.959 398.832,533.012 410.681,516.085C428.535,490.58 433.056,452.456 428.45,422.521C426.898,412.428 423.665,400.296 417.419,391.968C415.072,388.839 412.527,384.445 409.365,382.073C408.185,381.189 405.85,380.346 404.083,379.795C402.092,378.917 399.791,378.598 397.459,379.012C392.581,379.876 390.96,382.566 390.329,383.496C388.468,386.24 388.226,389.039 389.251,391.868C389.408,392.299 398.214,398.608 398.214,398.608C398.214,398.608 396.476,397.862 395.847,397.39C396.45,397.843 396.769,398.666 397.23,399.376C398.106,400.723 398.95,402.064 399.8,403.198C404.288,409.181 406.127,418.042 407.243,425.294C411.18,450.885 407.946,483.575 392.683,505.379C382.82,519.47 369.643,521.982 355.461,523.913C343.363,525.56 330.561,526.712 317.681,531.005C291.905,539.597 270.66,554.456 251.782,573.442ZM263.69,590.786C244.35,611.303 242.451,638.052 265.997,654.871C271.596,658.87 278.353,661.686 285.333,661.149C290.708,660.736 294.973,656.823 298.462,652.124C305.006,643.312 308.555,630.942 306.66,622.1C303.35,606.655 290.638,594.688 275.57,590.921C271.725,589.96 267.759,590.027 263.69,590.786ZM409.753,391.496C408.656,394.924 405.57,397.682 401.503,398.403C407.511,397.338 409.202,393.726 409.753,391.496Z"/>
        </g>
        <g transform="matrix(0.88663,0,0,0.769285,-403.752,412.707)">
            <path d="M1255.75,1176.6L1265.32,1168.59" style="fill:none;stroke:black;stroke-width:20.12px;"/>
        </g>
        <g transform="matrix(0.88663,0,0,0.769285,-403.752,412.707)">
            <path d="M1202.93,1105.84C1202.93,1105.84 1228.44,1080.22 1262.1,1088.42" style="fill:none;stroke:black;stroke-width:20.12px;"/>
        </g>
        <g transform="matrix(0.884084,-0.24469,0.219434,0.667029,483.733,1141.99)">
            <path d="M414.867,377.128C406.863,352.677 372.118,366.97 381.28,393.616" style="fill:none;stroke:rgb(174,0,255);stroke-width:9.51px;"/>
        </g>
    </g>
    <g id="Cactus" transform="matrix(1.12787,0,0,1.29991,444.16,-543.111)">
        <g transform="matrix(1.01351,0,0,0.708579,310.882,449.374)">
            <path d="M686.476,22.957C671.158,19.636 669.227,39.742 671.626,97.192C671.626,97.192 648.046,31.322 627.463,37.178C606.879,43.035 637.623,113.365 637.623,113.365C637.623,113.365 591.148,62.311 578.409,76.361C557.605,99.308 614.856,144.215 614.856,144.215C614.856,144.215 539.92,150.273 551.272,177.801C559.825,198.539 626.092,176.489 626.092,176.489C626.092,176.489 436.654,310.609 595.138,610.279L572.495,571.167C572.495,571.167 516.307,576.754 477.222,623.547C477.222,623.547 461.27,715.625 535.257,762.742C535.257,762.742 667.922,803.512 812.947,765.403C812.947,765.403 867.245,723.035 868.766,635.961C868.766,635.961 837.179,589.107 777.093,577.626C777.093,577.626 768.056,603.326 757.414,616.185C746.771,629.044 914.921,367.556 740.23,181.189C740.23,181.189 803.438,199.419 809.794,188.363C827.303,157.902 754.181,160.526 754.181,160.526C754.181,160.526 825.653,148.434 814.704,123.145C803.755,97.857 753.666,128.345 753.666,128.345C753.666,128.345 804.577,86.599 788.665,61.421C772.752,36.242 731.269,100.69 731.269,100.69C731.269,100.69 762.353,57.959 750.014,31.214C737.676,4.469 704.278,97.516 704.278,97.516C704.278,97.516 706.352,27.265 686.476,22.957Z" style="fill:rgb(255,200,48);stroke:black;stroke-width:19.38px;"/>
        </g>
        <g transform="matrix(0.929679,0,0,0.708579,367.177,452.909)">
            <path d="M626.458,179.833C626.458,179.833 593.099,215.514 616.697,215.877C640.295,216.239 654.999,184.92 654.999,184.92C654.999,184.92 630.73,235.58 652.093,245.533C673.457,255.486 692.828,190.855 692.828,190.855C692.828,190.855 701.617,244.348 724.439,245.155C747.26,245.963 714.818,188.307 714.818,188.307C714.818,188.307 743.4,233.145 765.095,223.648C786.79,214.151 740.982,184.334 740.982,184.334" style="fill:rgb(255,200,48);stroke:black;stroke-width:20.39px;"/>
        </g>
        <g transform="matrix(0.929679,0,0,0.708579,367.177,452.909)">
            <path d="M578.783,251.722L545.359,217.689" style="fill:none;stroke:black;stroke-width:20.39px;"/>
        </g>
        <g transform="matrix(0.929679,0,0,0.708579,367.177,452.909)">
            <path d="M551.161,326.447L511.935,313.873" style="fill:none;stroke:black;stroke-width:20.39px;"/>
        </g>
        <g transform="matrix(0.929679,0,0,0.708579,367.177,452.909)">
            <path d="M550.594,402.487L502.303,398.178" style="fill:none;stroke:black;stroke-width:20.39px;"/>
        </g>
        <g transform="matrix(0.929679,0,0,0.708579,367.177,452.909)">
            <path d="M555.469,465.899L513.064,481.936" style="fill:none;stroke:black;stroke-width:20.39px;"/>
        </g>
        <g transform="matrix(0.929679,0,0,0.708579,367.177,452.909)">
            <path d="M575.488,531.831L534.777,550.868" style="fill:none;stroke:black;stroke-width:20.39px;"/>
        </g>
        <g transform="matrix(0.884955,0.0317531,0.0364965,0.683176,388.972,435.933)">
            <path d="M689.856,256.126L711.819,238.222" style="fill:none;stroke:black;stroke-width:20.41px;"/>
        </g>
        <g transform="matrix(0.869716,0.0217313,0.0285121,0.698246,408.293,437.155)">
            <path d="M687.223,342.698L727.259,323.661" style="fill:none;stroke:black;stroke-width:20.63px;"/>
        </g>
        <g transform="matrix(0.929679,0,0,0.708579,371.701,451.829)">
            <path d="M688.362,410.695L718.64,417.45" style="fill:none;stroke:black;stroke-width:20.39px;"/>
        </g>
        <g transform="matrix(0.872976,-0.051499,-0.072212,0.642995,442.7,519.936)">
            <path d="M685.938,479.615L711.314,509.854" style="fill:none;stroke:black;stroke-width:23.99px;"/>
        </g>
        <g transform="matrix(0.929679,0,0,0.708579,371.168,458.158)">
            <path d="M679.123,546.895L697.856,574.546" style="fill:none;stroke:black;stroke-width:20.39px;"/>
        </g>
        <g transform="matrix(0.929679,0,0,0.708579,367.177,452.909)">
            <path d="M778.02,258.046L817.382,223.786" style="fill:none;stroke:black;stroke-width:20.39px;"/>
        </g>
        <g transform="matrix(0.929679,0,0,0.708579,367.177,452.909)">
            <path d="M797.009,336.199L841.018,319.118" style="fill:none;stroke:black;stroke-width:20.39px;"/>
        </g>
        <g transform="matrix(0.929679,0,0,0.708579,367.177,452.909)">
            <path d="M797.574,406.978L846.84,400.794" style="fill:none;stroke:black;stroke-width:20.39px;"/>
        </g>
        <g transform="matrix(0.929679,0,0,0.708579,376.065,452.232)">
            <path d="M785.246,474.975L827.706,494.109" style="fill:none;stroke:black;stroke-width:20.39px;"/>
        </g>
        <g transform="matrix(0.929679,0,0,0.708579,371.455,446.383)">
            <path d="M770.029,543.542L804.18,564.949" style="fill:none;stroke:black;stroke-width:20.39px;"/>
        </g>
        <g transform="matrix(0.929679,0,0,0.708579,367.177,452.909)">
            <path d="M463.817,627.059C463.817,627.059 662.623,725.06 882.881,634.506" style="fill:rgb(255,200,48);stroke:black;stroke-width:20.39px;"/>
        </g>
        <g transform="matrix(0.929679,0,0,0.708579,367.177,452.909)">
            <path d="M580.444,613.727C586.08,613.529 594.067,605.87 607.496,607.362C619.795,608.729 629.35,617.524 642.639,617.524" style="fill:rgb(255,190,11);"/>
            <path d="M580.739,624.645C583.328,624.554 586.288,623.649 589.653,622.189C593.742,620.414 599.066,617.401 606.564,618.234C611.861,618.822 616.533,621.15 621.346,623.191C627.967,625.999 634.765,628.447 642.639,628.447C647.935,628.447 652.234,623.553 652.234,617.524C652.234,611.496 647.935,606.601 642.639,606.601C635.898,606.601 630.346,603.682 624.695,601.291C619.47,599.08 614.196,597.132 608.428,596.491C600.037,595.559 593.338,597.416 587.865,599.606C584.63,600.901 582.229,602.736 580.148,602.809C574.855,602.995 570.69,608.038 570.853,614.063C571.016,620.089 575.446,624.83 580.739,624.645Z"/>
        </g>
        <g transform="matrix(0.929679,0,0,0.708579,367.177,452.909)">
            <path d="M685.059,621.653C683.884,616.952 707.473,610.231 711.232,609.479C734.003,604.925 752.402,616.254 774.32,616.254C781.622,616.254 794.139,614.804 796.761,606.939" style="fill:rgb(255,190,11);"/>
            <path d="M788.011,602.459C787.547,602.728 785.89,603.663 784.79,604.002C781.266,605.087 777.265,605.331 774.32,605.331C764.002,605.331 754.524,602.569 744.934,600.438C733.632,597.927 722.205,596.195 709.571,598.721C706.109,599.414 688.104,604.742 681.705,609.521C675.504,614.154 674.782,620.446 675.831,624.642C677.28,630.441 682.592,633.808 687.686,632.158C690.077,631.384 691.997,629.64 693.212,627.408C697.011,625.939 710.699,620.676 712.892,620.238C723.03,618.21 732.188,619.865 741.258,621.88C752.04,624.275 762.72,627.177 774.32,627.177C779.673,627.177 787.301,626.406 793.253,623.821C799.307,621.191 803.777,616.678 805.732,610.814C807.611,605.178 805.116,598.865 800.165,596.727C795.394,594.666 790.073,597.227 788.011,602.459ZM694.437,619.35L694.455,619.452L694.447,619.397L694.437,619.35Z"/>
        </g>
        <g transform="matrix(1.6675,0,0,1.49061,-237.623,-1042.83)">
            <path d="M696.028,1292.52C696.028,1292.52 686.775,1287.28 680.482,1275.18" style="fill:none;stroke:black;stroke-width:10.54px;"/>
        </g>
        <g transform="matrix(1.6675,0,0,1.49061,-237.623,-1042.83)">
            <path d="M788.502,1296.51C788.502,1296.51 794.552,1292.89 801.547,1277.56" style="fill:none;stroke:black;stroke-width:10.54px;"/>
        </g>
    </g>
    <g id="sports" transform="matrix(1.12787,0,0,1.29991,444.16,-543.111)">
        <g transform="matrix(0.592645,0,0,0.488634,-163.847,1041.46)">
            <path d="M113.066,117.021C19.905,147.191 39.055,769.09 264.912,724.261C475.667,682.429 194.034,90.799 113.066,117.021Z" style="fill:rgb(0,98,255);stroke:black;stroke-width:30.86px;"/>
        </g>
        <g transform="matrix(0.587496,-0.0171745,-0.0177205,0.429519,-151.959,1081.11)">
            <path d="M72.615,130.116L218.626,720.889" style="fill:none;stroke:black;stroke-width:34.01px;"/>
        </g>
        <g transform="matrix(0.589227,-0.0101057,-0.0104269,0.457801,-155.584,1065.89)">
            <path d="M151.656,132.082L307.672,691.64" style="fill:none;stroke:black;stroke-width:32.54px;"/>
        </g>
        <g transform="matrix(0.592645,0,0,0.488634,-163.847,1041.46)">
            <path d="M226.378,579.802L248.956,671.71C248.956,671.71 278.302,681.975 285.198,710.785C285.198,710.785 289.1,601.74 226.378,579.802Z" style="fill:rgb(0,98,255);stroke:black;stroke-width:30.86px;"/>
        </g>
        <g transform="matrix(0.784225,0,0,0.671014,-308.322,916.207)">
            <path d="M562.025,276.983L552.888,254.3C552.888,254.3 454.413,236.759 367.496,299.776C367.496,299.776 372.977,373.804 395.651,407.539C395.651,407.539 349.102,507.445 396.927,579.271C396.927,579.271 366.633,658.754 423.712,699.773C480.791,740.791 556.884,709.658 556.884,709.658C556.884,709.658 671.38,748.299 723.841,693.291C776.303,638.283 735.309,585.227 735.309,585.227C735.309,585.227 793.571,546.386 729.679,400.932C729.679,400.932 752.678,354.784 755.281,299.125C755.281,299.125 693.343,230.852 572.413,254.477L562.025,276.983Z" style="fill:rgb(0,98,255);stroke:black;stroke-width:22.91px;"/>
        </g>
        <g transform="matrix(0.784225,0,0,0.671014,-308.322,916.207)">
            <path d="M570.474,256.162C570.474,256.162 553.753,294.99 564.895,357.492C564.895,357.492 438.804,438.899 442.167,557.917C443.31,598.372 452.204,651.387 499.097,686.638C499.097,686.638 534.774,708.692 573.428,702.29" style="fill:rgb(0,98,255);stroke:black;stroke-width:22.91px;"/>
        </g>
        <g transform="matrix(0.722188,0,0,0.437756,-281.835,1049.1)">
            <path d="M383.097,590.955C383.097,590.955 394.045,573.395 426.955,569.742" style="fill:rgb(58,134,255);stroke:black;stroke-width:28.64px;"/>
        </g>
        <g transform="matrix(0.784225,0,0,0.671014,-308.322,916.207)">
            <path d="M442.998,462.962C442.998,462.962 455.034,460.259 461.394,473.739" style="fill:rgb(58,134,255);stroke:black;stroke-width:22.91px;"/>
        </g>
        <g transform="matrix(0.784225,0,0,0.671014,-308.322,916.207)">
            <path d="M422.601,387.679C422.601,387.679 458.092,350.745 531.666,350.993" style="fill:rgb(58,134,255);stroke:black;stroke-width:22.91px;"/>
        </g>
        <g transform="matrix(0.784225,0,0,0.671014,-308.322,916.207)">
            <path d="M594.778,354.204C594.778,354.204 659.066,348.857 703.542,385.932" style="fill:rgb(58,134,255);stroke:black;stroke-width:22.91px;"/>
        </g>
        <g transform="matrix(0.784225,0,0,0.671014,-308.322,916.207)">
            <path d="M696.38,472.334C696.38,472.334 581.037,480.065 604.153,566.574C625.695,647.199 724.045,570.234 724.045,570.234" style="fill:rgb(0,98,255);stroke:black;stroke-width:22.91px;"/>
        </g>
        <g transform="matrix(0.784225,0,0,0.671014,-308.322,916.207)">
            <path d="M735.586,585.696C735.586,585.696 721.259,570.166 712.637,577.323" style="fill:rgb(58,134,255);stroke:black;stroke-width:22.91px;"/>
        </g>
        <g transform="matrix(0.784225,0,0,0.671014,-308.322,916.207)">
            <path d="M600.009,554.825C600.009,554.825 553.429,494.018 492.933,546.803" style="fill:rgb(0,98,255);stroke:black;stroke-width:22.91px;"/>
        </g>
        <g transform="matrix(1.6675,0,0,1.49061,-237.623,-1042.83)">
            <path d="M140.426,1574.95C140.426,1574.95 122.411,1536.61 145.97,1500.46" style="fill:none;stroke:black;stroke-width:10.54px;"/>
        </g>
    </g>
    <g id="Gato" transform="matrix(1.31916,0,0,1.52038,438.584,-759.817)">
        <g transform="matrix(1.04444,0,0,0.898561,-530.756,535.52)">
            <path d="M459.576,66.009C459.576,66.009 465.768,31.333 497.211,12.458C497.211,12.458 521.308,21.813 531.362,63.576C531.362,63.576 560.751,68.41 581.053,97.606C581.053,97.606 612.956,66.401 647.747,77.022C647.747,77.022 661.48,104.305 624.492,149.166C624.492,149.166 634.173,195.797 592.573,234.068C592.573,234.068 720.615,287.686 711.023,449.572C711.023,449.572 810.011,488.783 697.157,617.952C697.157,617.952 663.412,653.394 668.166,723.347C668.166,723.347 674.527,760.444 650.253,765.932C625.978,771.42 606.559,729.626 606.559,729.626C606.559,729.626 563.919,634.465 648.088,524.336L544.99,513.145C544.99,513.145 506.978,533.792 464.296,507.526C464.296,507.526 427.17,537.075 403.683,524.195C380.195,511.314 406.461,477.219 406.461,477.219C406.461,477.219 368.257,364.675 418.369,211.813C418.369,211.813 397.562,186.862 411.712,133.021C425.863,79.18 459.576,66.009 459.576,66.009Z" style="fill:rgb(251,9,74);stroke:black;stroke-width:14.67px;"/>
        </g>
        <g transform="matrix(1.04444,0,0,0.898561,-523.225,534.704)">
            <ellipse cx="489.666" cy="121.541" rx="9.066" ry="8.654" style="stroke:black;stroke-width:14.67px;"/>
        </g>
        <g transform="matrix(1.04444,0,0,0.898561,-531.573,538.786)">
            <ellipse cx="552.673" cy="147.037" rx="9.1" ry="8.623" style="stroke:black;stroke-width:14.67px;"/>
        </g>
        <g transform="matrix(1.04444,0,0,0.898561,-527.619,530.867)">
            <path d="M699.428,480.208C699.428,480.208 671.47,493.842 643.442,531.672" style="fill:rgb(251,9,74);stroke:black;stroke-width:14.67px;"/>
        </g>
        <g transform="matrix(1.04444,0,0,0.898561,-527.619,530.867)">
            <path d="M406.7,88.358C406.7,88.358 434.448,99.809 443.057,113.762" style="fill:rgb(251,9,74);stroke:black;stroke-width:14.67px;"/>
        </g>
        <g transform="matrix(1.07902,0.311139,-0.307555,0.789447,-501.627,409.568)">
            <path d="M389.282,137.802C389.282,137.802 410.924,130.1 429.233,140.767" style="fill:rgb(251,9,74);stroke:black;stroke-width:14.53px;"/>
        </g>
        <g transform="matrix(1.04444,0,0,0.898561,-527.619,530.867)">
            <path d="M594.997,182.648C594.997,182.648 619.918,176.439 640.974,186.107" style="fill:rgb(251,9,74);stroke:black;stroke-width:14.67px;"/>
        </g>
        <g transform="matrix(1.04444,0,0,0.898561,-527.619,530.867)">
            <path d="M587.102,207.322C587.102,207.322 607.817,211.092 624.096,227.666" style="fill:rgb(251,9,74);stroke:black;stroke-width:14.67px;"/>
        </g>
        <g transform="matrix(1.04444,0,0,0.898561,-527.619,530.867)">
            <path d="M476.331,237.954C476.545,236.471 471.143,237.18 470.371,237.334C466.132,238.182 459.331,242.225 457.932,246.424" style="fill:rgb(251,9,74);"/>
            <path d="M475.024,238.907C475.27,239.251 475.648,239.499 476.097,239.565C476.979,239.694 477.798,239.078 477.927,238.189C478.434,237.007 477.592,236.015 475.918,235.254C474.216,234.481 470.554,234.731 469.869,234.783C466.989,235.156 463.004,236.682 459.887,238.947C458.814,239.727 457.818,240.585 457.092,241.555C456.131,242.839 455.509,244.186 455.259,245.518C454.764,247.005 455.559,248.619 457.033,249.119C458.508,249.619 460.108,248.817 460.604,247.33C460.888,246.755 461.508,246.389 462.034,245.842C462.877,244.965 463.842,244.039 464.928,243.228C466.926,241.735 469.09,240.383 470.872,239.885C471.326,239.735 475.06,237.79 475.018,239.098C475.015,239.189 475.036,239.031 475.024,238.907ZM474.739,238.219C474.735,238.433 474.759,238.619 474.919,238.739C474.831,238.579 474.769,238.404 474.739,238.219Z"/>
        </g>
        <g transform="matrix(1.04444,0,0,0.898561,-526.888,523.463)">
            <path d="M463.441,269.127C463.4,267.927 456.76,272.301 456.497,272.498C452.769,275.294 450.42,279.341 449.32,283.741" style="fill:rgb(251,9,74);"/>
            <path d="M463.261,270.742C463.338,270.753 463.417,270.756 463.497,270.753C464.387,270.722 465.085,269.968 465.054,269.07C465.212,267.955 464.352,267.209 462.289,267.282C461.318,267.317 459.738,267.526 458.103,268.083C456.257,268.713 454.706,269.794 454.565,269.879C451.763,271.674 449.543,274.068 447.888,276.828C447.556,277.381 447.215,277.94 447.005,278.552C446.512,279.986 446.358,281.444 446.273,282.966C445.849,284.662 446.87,286.387 448.552,286.814C450.234,287.242 451.944,286.212 452.368,284.516C452.863,283.427 453.64,282.57 454.199,281.52C454.72,280.542 455.067,279.485 455.658,278.546C456.436,277.309 457.296,276.116 458.428,275.117C458.527,275.026 459.791,274.157 460.988,273.081C461.951,272.214 463.525,271.389 463.261,270.742ZM462.076,269.992C462.161,270.161 462.272,270.298 462.427,270.39C462.289,270.278 462.17,270.144 462.076,269.992Z"/>
        </g>
        <g transform="matrix(1.04444,0,0,0.898561,-523.056,514.732)">
            <path d="M464.013,303.311C463.916,302.663 465.286,301.443 464.63,301.443C463.354,301.443 461.109,304.475 460.563,305.27C457.818,309.263 455.288,314.411 454.104,319.144" style="fill:rgb(251,9,74);"/>
            <path d="M464.243,305.068L464.276,305.065C465.108,304.938 465.716,304.241 465.767,303.427C465.787,303.497 465.823,303.563 465.882,303.622C466.113,303.853 466.397,303.233 466.607,303.052C467.372,302.395 467.069,301.524 467.141,301.061C467.31,299.986 466.44,299.665 464.63,298.953C463.893,298.726 463.056,299.133 461.964,299.569C460.199,300.272 458.202,302.493 457.535,303.153C455.503,305.588 453.521,308.445 451.949,311.499C451.53,312.314 451.053,313.116 450.844,313.995C450.494,315.471 450.574,316.823 450.619,318.258C450.134,320.198 451.302,322.17 453.226,322.659C455.149,323.149 457.105,321.971 457.59,320.03C458.095,319.198 458.808,318.628 459.279,317.719C459.777,316.759 460.055,315.675 460.455,314.639C461.429,312.111 462.375,309.57 463.591,307.387C463.721,307.092 463.932,305.932 464.243,305.068Z"/>
        </g>
        <g transform="matrix(1.04444,0,0,0.898561,-523.797,536.259)">
            <path d="M531.084,516.463C554.045,504.514 543.494,482.488 543.494,482.488C543.494,482.488 527.823,463.655 507.219,475.576L523.807,471.773C523.807,471.773 505.979,413.255 536.567,341.789" style="fill:rgb(251,9,74);stroke:black;stroke-width:14.67px;"/>
        </g>
        <g transform="matrix(1.04444,0,0,0.898561,-527.619,530.867)">
            <path d="M538.545,475.941C538.545,475.941 493.377,393.254 591.909,340.437" style="fill:rgb(251,9,74);stroke:black;stroke-width:14.67px;"/>
        </g>
        <g transform="matrix(1.04444,0,0,0.898561,-527.619,530.867)">
            <path d="M548.016,482.861C548.016,482.861 556.394,463.556 583.713,470.112" style="fill:rgb(251,9,74);stroke:black;stroke-width:14.67px;"/>
        </g>
        <g transform="matrix(1.20268,0,0,1.23682,-605.6,468.374)">
            <path d="M473.723,163.807C473.723,163.807 476.086,180.876 498.407,174.048C498.407,174.048 501.543,196.786 528.065,187.332" style="fill:rgb(251,9,74);stroke:black;stroke-width:11.57px;"/>
        </g>
        <g transform="matrix(1.35456,0,0,0.891051,-661.469,531.645)">
            <path d="M454.043,348.515C460.819,344.588 441.916,407.543 456.533,483.965" style="fill:rgb(251,9,74);stroke:black;stroke-width:12.69px;"/>
        </g>
    </g>
</svg>
