<?xml version="1.0" encoding="UTF-8" standalone="no"?>
<!DOCTYPE svg PUBLIC "-//W3C//DTD SVG 1.1//EN" "http://www.w3.org/Graphics/SVG/1.1/DTD/svg11.dtd">
<svg width="100%" height="100%" viewBox="0 0 2048 1536" version="1.1" xmlns="http://www.w3.org/2000/svg" xmlns:xlink="http://www.w3.org/1999/xlink" xml:space="preserve" xmlns:serif="http://www.serif.com/" style="fill-rule:evenodd;clip-rule:evenodd;stroke-linecap:round;stroke-linejoin:round;stroke-miterlimit:1.5;">
    <g id="Capa3">
        <path d="M1836.36,651.569L2018.8,779.573L2017.44,1510.1L1962.45,1509.07L1850.93,1380.27L181.48,1376.59L79.811,1505.84L32.798,1506.99L23.435,796.787L215.008,660.159L1836.36,651.569" style="fill:#515151;stroke:#000;stroke-width:20.12px;"/>
    </g>
    <g id="Capa2">
        <path d="M210.432,663.289L24.266,797.621L31.282,1510.76L80.872,1509.07L184.857,1375.3L1848.69,1376.21L1958.19,1510.1L2017.18,1510.43L2023.64,781.291L1829.13,651.323L210.432,663.289Z" style="fill:none;stroke:#000;stroke-width:20.12px;"/>
        <path d="M1823.05,1136.02L1821.91,828.289" style="fill:none;stroke:#000;stroke-width:20.12px;"/>
        <path d="M208.413,848.497L211.965,1126.71" style="fill:none;stroke:#000;stroke-width:20.12px;"/>
        <path d="M2010.77,781.396L35.173,797.532" style="fill:none;stroke:#000;stroke-width:20.12px;"/>
        <path d="M37.809,1334.26L2013.01,1332.37" style="fill:none;stroke:#000;stroke-width:20.12px;"/>
        <path d="M79.208,1505.16L79.339,1376L1961.34,1374.82L1962.62,1503.01" style="fill:none;stroke:#000;stroke-width:20.12px;"/>
        <path d="M79.962,844.062L79.046,1296.9L1966.02,1289.99L1966.21,822.486L79.962,844.062Z" style="fill:none;stroke:#000;stroke-width:20.12px;"/>
        <path d="M206.466,1132.12L1813.36,1131.22L206.466,1132.12Z" style="fill:none;stroke:#000;stroke-width:20.12px;"/>
        <path d="M89.222,1285.86L206.466,1132.12" style="fill:none;stroke:#000;stroke-width:20.12px;"/>
        <path d="M1821.5,1137.51L1953.26,1282.29" style="fill:none;stroke:#000;stroke-width:20.12px;"/>
    </g>
    <g id="Games">
        <path d="M1436.09,856.069L1435.28,1133.24L1507.69,1250.31L1872.38,1247.14L1872.83,946.657L1787.16,851.092L1436.09,856.069Z" style="fill:#ae00ff;stroke:#000;stroke-width:20.12px;"/>
        <path d="M1818.93,900.066L1781.19,859.228L1517.69,863.011" style="fill:none;stroke:#000;stroke-width:20.12px;"/>
        <ellipse cx="1817.7" cy="914.618" rx="19.6" ry="12.151" style="fill:none;stroke:#000;stroke-width:20.12px;"/>
        <ellipse cx="1523.69" cy="912.763" rx="13.696" ry="10.075" style="fill:none;stroke:#000;stroke-width:20.12px;"/>
        <ellipse cx="1499.69" cy="874.618" rx="21.55" ry="15.424" style="fill:none;stroke:#000;stroke-width:20.12px;"/>
        <ellipse cx="1653.34" cy="887.13" rx="80.801" ry="22.721" style="fill:#ae00ff;stroke:#000;stroke-width:20.12px;"/>
        <ellipse cx="1663.32" cy="1098.36" rx="16.99" ry="18.036" style="stroke:#000;stroke-width:20.12px;"/>
        <ellipse cx="1721.04" cy="1098.16" rx="17.002" ry="18.036" style="stroke:#000;stroke-width:20.12px;"/>
        <ellipse cx="1779.86" cy="1101.6" rx="16.99" ry="18.036" style="stroke:#000;stroke-width:20.12px;"/>
        <path d="M1562.78,1040.5L1562.23,1177.63" style="fill:none;stroke:#000;stroke-width:20.12px;"/>
        <path d="M1562.78,1040.5L1821.32,1040.32L1822.73,1180" style="fill:none;stroke:#000;stroke-width:20.12px;"/>
        <path d="M1589.02,1153.57L1588.14,1172.23L1674.2,1172.36L1674.5,1154.14L1589.02,1153.57Z" style="fill:none;stroke:#000;stroke-width:20.12px;"/>
        <path d="M1698.7,1153.64L1699.43,1172.14L1791.31,1171.44L1791.02,1154.14L1698.7,1153.64Z" style="fill:none;stroke:#000;stroke-width:20.12px;"/>
        <path d="M1512.86,1184.13L1863.56,1184.92" style="fill:none;stroke:#000;stroke-width:20.12px;"/>
        <path d="M1538.68,917.176L1794.96,916.847" style="fill:none;stroke:#000;stroke-width:20.12px;"/>
        <path d="M1516.53,901.518L1506.99,891.609" style="fill:none;stroke:#000;stroke-width:20.12px;"/>
        <path d="M1452.9,992.054L1491.19,1032.88" style="fill:none;stroke:#000;stroke-width:20.12px;"/>
        <path d="M1450.51,1014.62L1488.2,1053.44" style="fill:none;stroke:#000;stroke-width:20.12px;"/>
        <path d="M1448.43,1038.11L1485.49,1077.92" style="fill:none;stroke:#000;stroke-width:20.12px;"/>
        <path d="M1439.53,855.122L1510.65,944.057L1508.87,1256.38" style="fill:none;stroke:#000;stroke-width:20.12px;"/>
        <path d="M1511.99,946.092L1866.41,945.282" style="fill:none;stroke:#000;stroke-width:20.12px;"/>
        <path d="M1392.1,1145.31C1392.1,1145.31 1397.33,1135.31 1408.56,1136.17" style="fill:none;stroke:#000;stroke-width:20.12px;"/>
        <path d="M1400.13,1175.24C1400.15,1169.77 1364.12,1206.25 1364.12,1206.25C1364.12,1206.25 1378.19,1239.37 1364.48,1243.71C1350.78,1248.04 1315.25,1226.93 1309.68,1173.76C1309.68,1173.76 1301.12,1155.03 1298.77,1136.56C1297.79,1128.84 1297.9,1121.16 1300.18,1114.92C1303.26,1106.48 1307.86,1102.02 1312.21,1097.95C1327.4,1083.78 1339.42,1091.41 1350.28,1088.83C1350.28,1088.83 1377.47,1062.76 1406.73,1073.58C1406.73,1073.58 1417.31,1039.99 1452.91,1044.99C1452.91,1044.99 1484.41,1071.45 1476.74,1103.56C1476.74,1103.56 1515.59,1140.11 1517.56,1192.96C1517.56,1192.96 1511.68,1226.87 1470.84,1169.53C1470.84,1169.53 1400.1,1180.71 1400.13,1175.24Z" style="fill:#ae00ff;stroke:#ae00ff;stroke-width:20.12px;"/>
        <path d="M1300.95,1161.9C1300.95,1161.9 1293.41,1218.15 1340.92,1249.49C1340.92,1249.49 1360.43,1263.65 1374.43,1247.13C1374.43,1247.13 1383,1232.88 1368.27,1217.2C1353.54,1201.53 1353.16,1188.71 1353.16,1188.71" style="fill:none;stroke:#000;stroke-width:20.12px;"/>
        <path d="M1384.37,1134.79C1384.37,1134.79 1394.16,1119.62 1409.88,1121.74" style="fill:none;stroke:#000;stroke-width:20.12px;"/>
        <path d="M1415.59,1056.93C1415.59,1056.93 1395.17,1086.35 1413.96,1115.82C1413.96,1115.82 1405.54,1157.26 1422.84,1167.71C1422.84,1167.71 1441.65,1181.06 1460.39,1160.3C1460.39,1160.3 1470.21,1149.99 1466.63,1122.46C1466.63,1122.46 1492.02,1099.73 1479.21,1067.1C1479.21,1067.1 1457.32,1019.85 1415.59,1056.93" style="fill:none;stroke:#000;stroke-width:20.12px;"/>
        <path d="M1485.6,1098.99C1485.6,1098.99 1542.73,1157.63 1520.48,1196.03C1498.22,1234.43 1475.38,1153.62 1465.25,1163.12" style="fill:none;stroke:#000;stroke-width:20.12px;"/>
        <path d="M1361.07,1206.42C1361.07,1206.42 1386.1,1218.32 1399.6,1189.65L1396.35,1166.2" style="fill:none;stroke:#000;stroke-width:20.12px;"/>
        <path d="M1410.19,1144.27L1410.73,1176.76C1410.73,1176.76 1429.37,1198.45 1461.59,1180.56L1466.03,1146.42" style="fill:none;stroke:#000;stroke-width:20.12px;"/>
        <path d="M1336.76,1086.94C1305.13,1083.56 1284.76,1115.34 1296.07,1148.4C1296.07,1148.4 1306.31,1172.35 1335.18,1168.15L1356.82,1187.69C1356.82,1187.69 1369.77,1200.85 1385.55,1186.29C1402.71,1170.46 1395.79,1158.02 1388.35,1146.6L1369.7,1123.13C1369.7,1123.13 1368.4,1090.33 1336.76,1086.94Z" style="fill:none;stroke:#000;stroke-width:20.12px;"/>
        <ellipse cx="1331.23" cy="1127.88" rx="15.06" ry="16.386" style="fill:#ae00ff;stroke:#000;stroke-width:20.12px;"/>
        <ellipse cx="1387.32" cy="1101.71" rx="5.713" ry="6.189" style="fill:#ae00ff;stroke:#000;stroke-width:20.12px;"/>
        <ellipse cx="1444.31" cy="1089.12" rx="11.474" ry="12.488" style="fill:#ae00ff;stroke:#000;stroke-width:20.12px;"/>
        <ellipse cx="1426.25" cy="1106.43" rx="5.331" ry="5.889" style="fill:#ae00ff;stroke:#000;stroke-width:20.12px;"/>
        <ellipse cx="1440.07" cy="1139.03" rx="6.303" ry="7.33" style="fill:#9452da;stroke:#000;stroke-width:20.12px;"/>
        <path d="M1441.56,1077.06C1442.79,1077.09 1445.16,1077.1 1446.41,1076.8C1450.01,1075.94 1452.84,1073.85 1454.48,1070.17C1455.31,1068.32 1456.15,1066.05 1455.8,1062C1454.92,1051.71 1446.7,1048.78 1441.98,1048.23C1439.74,1047.97 1434.64,1049.07 1433.91,1049.35C1430.26,1050.74 1426.4,1054.05 1424.4,1058.06C1421.73,1063.38 1421.8,1069.51 1426.45,1074.72C1430.13,1078.83 1437.91,1077.82 1441.56,1077.06ZM1441.97,1076.97L1442.11,1076.96C1442.55,1076.89 1443.52,1076.59 1443.52,1076.59C1443.52,1076.59 1442.93,1076.76 1441.97,1076.97ZM1438.28,1059.54C1439.48,1059.86 1440.64,1060.4 1441.45,1061.3C1443.56,1063.65 1443.27,1067.32 1441.08,1068.15C1440.95,1068.2 1440.06,1068.27 1439.67,1068.22C1438.22,1068.06 1436.02,1066.87 1435.75,1063.72C1435.68,1062.84 1435.93,1062.36 1436.11,1061.96C1436.52,1061.04 1437.34,1060.23 1438.28,1059.54Z"/>
        <path d="M1474.47,1073.6C1473.72,1073.14 1468.8,1072.84 1466.09,1073.39C1463.29,1073.96 1461.64,1075.19 1460.95,1077.04C1459.95,1079.75 1465.72,1080.19 1464.75,1085.1C1463.55,1091.14 1461.52,1093.46 1462.37,1094.52C1463.94,1096.5 1467.2,1096.81 1468.6,1096.98C1473.62,1097.58 1480.11,1094.41 1481.21,1091.56C1485.96,1079.28 1478.91,1074.7 1474.47,1073.6Z" style="fill:#ae00ff;"/>
        <path d="M1454.24,1085.91C1453.29,1089.51 1452.27,1091.56 1452.16,1092.77C1451.85,1096.11 1452.79,1098.64 1454.48,1100.77C1457.84,1105.01 1464.42,1106.61 1467.4,1106.96C1473.3,1107.67 1480.45,1105.41 1484.82,1102.27C1487.82,1100.12 1489.71,1097.49 1490.59,1095.19C1494.57,1084.91 1492.76,1077.86 1489.87,1073.14C1486.72,1067.99 1481.65,1065.16 1477.5,1064C1476.86,1063.78 1476.11,1063.58 1475.27,1063.43C1472.67,1062.99 1467.32,1062.87 1464.08,1063.53C1456.95,1064.99 1453.26,1068.84 1451.52,1073.55C1449.91,1077.9 1450.74,1081.41 1453.1,1084.64C1453.35,1084.97 1453.78,1085.44 1454.24,1085.91Z"/>
        <path d="M1360.76,1146.99C1360.1,1147.26 1355.27,1152.9 1355.38,1153.09C1356.17,1154.53 1359.85,1158.18 1359.76,1158.64C1359.62,1159.28 1355.15,1164.22 1355.52,1164.73C1356.22,1165.68 1361.1,1171.88 1361.74,1171.35C1363.08,1170.25 1365.48,1166.27 1365.96,1166.46C1366.39,1166.64 1370.73,1172.36 1371.23,1172.16C1371.97,1171.86 1375.19,1165.91 1375.97,1164.98C1376.16,1164.74 1372.83,1160.68 1371.63,1159.23C1371.5,1159.07 1374.55,1155.31 1375.42,1154.1C1375.96,1153.34 1370.71,1147.83 1370.03,1147.56C1369.61,1147.38 1366.53,1151.87 1365.65,1152.4C1365.41,1152.55 1360.76,1146.08 1360.76,1146.99Z"/>
        <path d="M1353.68,1139.79C1353.44,1140 1353.2,1140.22 1352.96,1140.46C1351.24,1142.17 1347.88,1146.16 1347.15,1147.24C1343.54,1152.57 1346.1,1157.1 1346.57,1157.95C1346.72,1158.22 1346.99,1158.62 1347.34,1159.09C1346.59,1160.24 1346,1161.24 1345.88,1161.65C1344.63,1165.85 1346.06,1168.83 1347.4,1170.67C1348.02,1171.51 1351.29,1175.65 1353.36,1177.67C1354.77,1179.05 1356.11,1179.91 1356.95,1180.33C1360.53,1182.11 1363.5,1181.71 1365.74,1180.65C1369.74,1183.17 1373.21,1182.2 1374.99,1181.49C1375.94,1181.1 1377.48,1180.33 1379,1178.64C1380.07,1177.45 1383.59,1171.71 1384.02,1171.02C1385.3,1169.35 1387.49,1165.61 1384.99,1160.42C1384.86,1160.15 1384.56,1159.68 1384.15,1159.1C1385.32,1157.13 1386.16,1154.31 1385,1150.67C1384.49,1149.09 1381.92,1145.18 1379.34,1142.47C1376.94,1139.96 1374.41,1138.47 1373.79,1138.22C1372.17,1137.57 1369.31,1136.79 1366.01,1138.27C1364.96,1137.64 1364.04,1137.34 1363.39,1137.17C1359.12,1136.06 1356.04,1137.52 1353.82,1139.65L1353.68,1139.79ZM1370.79,1147.75C1370.68,1149.23 1370.25,1150.63 1369.55,1151.88C1370.17,1150.82 1370.68,1149.48 1370.79,1147.75ZM1370.79,1147.75C1370.81,1147.51 1370.82,1147.25 1370.82,1146.99L1370.79,1147.75Z"/>
        <path d="M1582.38,1102.4L1601.28,1131.93C1601.28,1131.93 1609.2,1144.76 1621.54,1142.79C1633.56,1140.87 1644.11,1130.07 1632.41,1110.41L1615.56,1085.5L1582.38,1102.4Z" style="stroke:#000;stroke-width:20.12px;"/>
        <path d="M1583.6,1103.92C1572.38,1087.98 1601.36,1065.57 1615.67,1085.34" style="fill:none;stroke:#000;stroke-width:20.12px;"/>
        <path d="M1583.6,1103.92L1615.67,1085.34" style="fill:none;stroke:#000;stroke-width:20.12px;"/>
        <path d="M1483.98,1297.65C1482.14,1298.26 1480.31,1298.95 1478.46,1299.72C1464.54,1305.52 1449.91,1315.82 1435.72,1323.82C1425.1,1329.81 1415.09,1335.2 1405.88,1332.41C1400.34,1330.74 1395.77,1325.73 1391.33,1317.05C1388.6,1311.73 1388.65,1304.78 1389.29,1298.88C1391.08,1282.35 1396.82,1275.2 1403.44,1267.69C1409.31,1261.03 1415.68,1254.13 1421.52,1243.27C1425.94,1235.04 1427.58,1224.95 1427.46,1214.3C1427.32,1201.12 1424.49,1187.01 1423.27,1175.93C1422.56,1169.41 1416.68,1164.7 1410.16,1165.41C1403.63,1166.13 1398.92,1172 1399.63,1178.53C1400.6,1187.34 1402.69,1198.17 1403.44,1208.82C1404.03,1217.25 1404.02,1225.59 1400.57,1232C1394.37,1243.54 1387.26,1249.67 1381.4,1256.89C1373.93,1266.08 1367.8,1276.51 1365.65,1296.32C1364.53,1306.6 1365.41,1318.6 1370.16,1327.89C1378.5,1344.17 1388.6,1352.03 1399,1355.18C1413.71,1359.62 1430.45,1354.09 1447.4,1344.54C1452.33,1341.75 1457.31,1338.67 1462.29,1335.61C1457.47,1357.16 1464.37,1379.09 1484.83,1394.94C1494.03,1402.07 1505.38,1406.34 1516.85,1405.38C1527.62,1404.49 1537.37,1397.69 1544.36,1387.47C1553.39,1374.29 1557.57,1355.61 1554.96,1342.37C1550.86,1321.61 1536.17,1305.14 1518.14,1297.95C1528.03,1289.91 1538.83,1283.43 1551.02,1279.02C1563.91,1274.36 1576.76,1274.23 1588.47,1271.86C1603.66,1268.79 1617.28,1262.8 1628.22,1245.86C1644.33,1220.88 1648.49,1183.56 1644.33,1154.24C1642.9,1144.19 1639.88,1132.12 1634.15,1123.83C1631.95,1120.65 1629.51,1116.23 1626.55,1113.82C1625.42,1112.9 1623.27,1112.01 1621.52,1111.39C1619.28,1110.28 1616.67,1109.87 1614.03,1110.38C1608.62,1111.42 1606.83,1114.66 1606.13,1115.78C1604.06,1119.08 1603.79,1122.45 1604.93,1125.86C1605.12,1126.41 1614.6,1133.91 1614.6,1133.91C1614.6,1133.91 1612.35,1132.93 1611.54,1132.27C1611.41,1132.16 1611.16,1131.91 1611.16,1131.91C1611.16,1131.91 1613.48,1135.76 1614.59,1137.36C1618.37,1142.83 1619.84,1150.95 1620.78,1157.58C1624.2,1181.66 1621.48,1212.44 1608.23,1232.96C1599.95,1245.81 1588.81,1247.96 1576.9,1249.72C1566.02,1251.33 1554.52,1252.47 1542.94,1256.66C1519.91,1264.98 1500.88,1279.32 1483.98,1297.65ZM1497.19,1318.56C1481.48,1337.1 1479.9,1361.04 1499.4,1376.14C1503.89,1379.62 1509.28,1382.15 1514.87,1381.69C1518.97,1381.34 1522.08,1377.92 1524.74,1374.04C1530.18,1366.09 1533.21,1354.96 1531.63,1346.98C1528.88,1333.05 1518.32,1322.24 1505.79,1318.84C1502.99,1318.09 1500.12,1318.07 1497.19,1318.56ZM1627.75,1125.18C1626.59,1129.41 1623.12,1132.85 1618.52,1133.73C1625.39,1132.41 1627.19,1127.84 1627.75,1125.18Z"/>
        <path d="M1396.82,1148.25L1405.86,1140.69" style="fill:none;stroke:#000;stroke-width:20.12px;"/>
        <path d="M1346.98,1081.47C1346.98,1081.47 1371.05,1057.29 1402.82,1065.03" style="fill:none;stroke:#000;stroke-width:20.12px;"/>
        <path d="M1634.87,1116.58C1621.62,1098.97 1592.27,1121.1 1607.11,1140.15" style="fill:none;stroke:#ae00ff;stroke-width:9.15px;"/>
    </g>
    <g id="Cactus">
        <path d="M1743.43,76.557C1728.53,78.675 1727.41,115.325 1749.72,162.855C1749.72,162.855 1700.31,81.98 1670.77,100.067C1649.13,113.324 1733.06,174.889 1733.06,174.889C1733.06,174.889 1643.53,134.618 1631.31,147.12C1611.34,167.538 1722.45,187.132 1722.45,187.132C1722.45,187.132 1621.42,190.605 1632.32,215.099C1640.52,233.552 1717.55,205.639 1717.55,205.639C1717.55,205.639 1522.31,333.273 1674.42,599.922L1652.68,565.12C1652.68,565.12 1598.76,570.091 1561.25,611.727C1561.25,611.727 1545.94,693.659 1616.95,735.584C1616.95,735.584 1744.27,771.862 1883.45,737.952C1883.45,737.952 1935.57,700.253 1937.03,622.774C1937.03,622.774 1906.71,581.082 1849.04,570.866C1849.04,570.866 1840.37,593.735 1830.16,605.177C1819.94,616.619 1978.07,376.787 1810.41,210.957C1810.41,210.957 1898.67,233.143 1904.77,223.305C1921.58,196.201 1810.42,194.391 1810.42,194.391C1810.42,194.391 1910.57,182.78 1900.06,160.278C1889.55,137.776 1804.01,179.351 1804.01,179.351C1804.01,179.351 1895.37,133.567 1880.1,111.163C1864.82,88.759 1790.91,164.673 1790.91,164.673C1790.91,164.673 1848.57,104.804 1828.03,85.617C1806.55,65.547 1772.21,163.938 1772.21,163.938C1772.21,163.938 1772.68,72.401 1743.43,76.557Z" style="fill:#ffc830;stroke:#000;stroke-width:20.12px;"/>
        <path d="M1731.99,195.503C1731.99,195.503 1651.32,239.646 1669.41,255.233C1690.84,273.703 1750.08,204.535 1750.08,204.535C1750.08,204.535 1701.13,270.952 1724.6,279.808C1748.07,288.664 1768.46,213.089 1768.46,213.089C1768.46,213.089 1779,278.753 1804.07,279.472C1829.14,280.191 1792.03,211.091 1792.03,211.091C1792.03,211.091 1837.42,276.306 1857.27,265.598C1879.04,253.859 1808.38,196.584 1808.38,196.584" style="fill:#ffc830;stroke:#000;stroke-width:20.12px;"/>
        <path d="M1666.08,285.315L1636.66,255.032" style="fill:none;stroke:#000;stroke-width:20.12px;"/>
        <path d="M1641.76,351.805L1607.23,340.618" style="fill:none;stroke:#000;stroke-width:20.12px;"/>
        <path d="M1641.27,419.466L1598.75,415.633" style="fill:none;stroke:#000;stroke-width:20.12px;"/>
        <path d="M1645.56,475.891L1608.23,490.161" style="fill:none;stroke:#000;stroke-width:20.12px;"/>
        <path d="M1663.18,534.558L1627.34,551.497" style="fill:none;stroke:#000;stroke-width:20.12px;"/>
        <path d="M1764.14,287.253L1781.93,272.768" style="fill:none;stroke:#000;stroke-width:20.12px;"/>
        <path d="M1770.71,360.789L1803.17,345.19" style="fill:none;stroke:#000;stroke-width:20.12px;"/>
        <path d="M1766.83,425.414L1793.49,431.425" style="fill:none;stroke:#000;stroke-width:20.12px;"/>
        <path d="M1762.3,488.404L1781.21,511.179" style="fill:none;stroke:#000;stroke-width:20.12px;"/>
        <path d="M1758.19,554.554L1774.69,579.158" style="fill:none;stroke:#000;stroke-width:20.12px;"/>
        <path d="M1841.48,290.942L1876.13,260.457" style="fill:none;stroke:#000;stroke-width:20.12px;"/>
        <path d="M1858.2,360.483L1896.94,345.284" style="fill:none;stroke:#000;stroke-width:20.12px;"/>
        <path d="M1858.69,423.463L1902.07,417.96" style="fill:none;stroke:#000;stroke-width:20.12px;"/>
        <path d="M1856.26,483.116L1893.64,500.142" style="fill:none;stroke:#000;stroke-width:20.12px;"/>
        <path d="M1838.5,536.783L1868.56,555.831" style="fill:none;stroke:#000;stroke-width:20.12px;"/>
        <path d="M1564.87,619.292C1564.87,619.292 1739.89,706.494 1933.79,625.919" style="fill:#ffc830;stroke:#000;stroke-width:20.12px;"/>
        <path d="M1667.54,607.429C1672.5,607.253 1679.54,600.439 1691.36,601.766C1702.18,602.982 1710.6,610.808 1722.3,610.808" style="fill:#ffbe0b;"/>
        <path d="M1666.72,597.403C1661.39,597.836 1657.3,602.394 1657.49,607.786C1657.68,613.335 1662.35,617.681 1667.9,617.484C1670.44,617.394 1673.38,616.541 1676.68,615.091C1679.97,613.649 1684.21,611.088 1690.24,611.764C1694.65,612.261 1698.52,614.27 1702.54,615.99C1708.67,618.622 1715,620.869 1722.3,620.869C1727.85,620.869 1732.36,616.361 1732.36,610.808C1732.36,605.256 1727.85,600.747 1722.3,600.747C1716.73,600.747 1712.18,598.221 1707.51,596.224C1702.69,594.161 1697.81,592.366 1692.48,591.768C1684.58,590.881 1678.26,592.622 1673.11,594.707C1670.74,595.666 1667.26,597.17 1666.72,597.403Z"/>
        <path d="M1759.64,614.482C1758.61,610.299 1779.37,604.319 1782.68,603.65C1802.73,599.598 1818.93,609.678 1838.22,609.678C1844.65,609.678 1855.67,608.388 1857.98,601.389" style="fill:#ffbe0b;"/>
        <path d="M1848.64,597.656C1848.25,597.86 1847.28,598.356 1846.65,598.552C1843.82,599.435 1840.59,599.617 1838.22,599.617C1829.34,599.617 1821.19,597.181 1812.94,595.328C1802.63,593.014 1792.21,591.46 1780.69,593.789C1777.53,594.428 1761.11,599.37 1755.26,603.784C1749.76,607.935 1748.94,613.138 1749.88,616.897C1751.21,622.288 1756.67,625.582 1762.06,624.248C1764.84,623.56 1767.07,621.771 1768.38,619.458C1771.79,618.139 1782.88,613.875 1784.67,613.512C1793.2,611.788 1800.9,613.248 1808.53,614.961C1818.21,617.135 1827.81,619.739 1838.22,619.739C1843.23,619.739 1850.36,618.987 1855.92,616.542C1861.53,614.08 1865.72,610.03 1867.53,604.541C1869.27,599.267 1866.4,593.574 1861.13,591.835C1856.05,590.161 1850.59,592.756 1848.64,597.656ZM1769.53,612.647L1769.54,612.665L1769.53,612.653L1769.53,612.647Z"/>
        <path d="M1682.88,602.437C1682.88,602.437 1668.27,592.633 1658.33,569.979" style="fill:none;stroke:#000;stroke-width:20.12px;"/>
        <path d="M1828.9,609.917C1828.9,609.917 1838.45,603.145 1849.5,574.444" style="fill:none;stroke:#000;stroke-width:20.12px;"/>
    </g>
    <g id="sports">
        <path d="M352.9,905.618L351.738,886.022C351.738,886.022 280.549,846.902 197.419,871.902C197.419,871.902 182.494,929.476 191.207,961.003C191.207,961.003 129.582,1024.56 147.788,1091.57C147.788,1091.57 103.942,1143.9 137.229,1189.97C170.516,1236.04 237.078,1232.38 237.078,1232.38C237.078,1232.38 315.132,1291.7 369.696,1263.74C424.26,1235.78 406.454,1184.8 406.454,1184.8C406.454,1184.8 461.298,1170.62 449.773,1043.57C449.773,1043.57 479.391,1014.6 495.783,973.076C495.783,973.076 465.806,905.065 366.707,891.275L352.9,905.618Z" style="fill:#0062ff;stroke:#000;stroke-width:20.12px;"/>
        <path d="M364.779,892.044C364.779,892.044 341.883,917.105 334.291,967.423C334.291,967.423 239.05,1006.59 188.097,1087.23C175.389,1107.35 156.909,1153.96 183.854,1192.99C183.854,1192.99 209.812,1229.79 241.191,1235.07" style="fill:#0062ff;stroke:#000;stroke-width:20.12px;"/>
        <path d="M144.582,1090.42C144.582,1090.42 149.421,1086.08 173.342,1092.21" style="fill:#3a86ff;stroke:#000;stroke-width:20.12px;"/>
        <path d="M213.286,1015.45C213.286,1015.45 223.241,1016.55 224.646,1028.44" style="fill:#3a86ff;stroke:#000;stroke-width:20.12px;"/>
        <path d="M217.066,953.008C217.066,953.008 253.906,934.305 310.419,953.783" style="fill:#3a86ff;stroke:#000;stroke-width:20.12px;"/>
        <path d="M358.12,972.764C358.12,972.764 408.938,985.564 433.553,1025.34" style="fill:#3a86ff;stroke:#000;stroke-width:20.12px;"/>
        <path d="M405.707,1088.98C405.707,1088.98 315.013,1064.61 310.421,1136.27C306.141,1203.06 401.669,1170.48 401.669,1170.48" style="fill:#0062ff;stroke:#000;stroke-width:20.12px;"/>
        <path d="M406.546,1185.23C406.546,1185.23 399.544,1169.69 391.063,1172.86" style="fill:#3a86ff;stroke:#000;stroke-width:20.12px;"/>
        <path d="M310.272,1126.27C310.272,1126.27 290.176,1067.95 230.008,1092.12" style="fill:#0062ff;stroke:#000;stroke-width:20.12px;"/>
        <path d="M141.528,1089.31C141.528,1089.31 134.094,1014.68 193.374,966.924" style="fill:none;stroke:#000;stroke-width:20.12px;"/>
    </g>
    <g id="Gato">
        <path d="M164.407,159.317C164.407,159.317 172.639,113.603 214.446,88.72C214.446,88.72 246.483,101.052 259.851,156.111C259.851,156.111 298.926,162.483 325.918,200.973C325.918,200.973 368.336,159.835 414.592,173.836C414.592,173.836 432.851,209.805 383.673,268.947C383.673,268.947 396.545,330.423 341.235,380.877C341.235,380.877 511.475,451.564 498.722,664.984C498.722,664.984 630.333,716.677 480.287,886.967C480.287,886.967 435.42,933.691 441.741,1025.91C441.741,1025.91 450.198,1074.82 417.924,1082.05C385.65,1089.29 359.83,1034.19 359.83,1034.19C359.83,1034.19 303.137,908.737 415.046,763.549L277.971,748.796C277.971,748.796 227.431,776.015 170.682,741.388C170.682,741.388 121.321,780.343 90.093,763.363C58.865,746.382 93.787,701.433 93.787,701.433C93.787,701.433 42.992,553.061 109.62,351.537C109.62,351.537 81.955,318.644 100.769,247.663C119.583,176.682 164.407,159.317 164.407,159.317Z" style="fill:#fb094a;stroke:#000;stroke-width:20.12px;"/>
        <ellipse cx="214.001" cy="231.33" rx="12.053" ry="11.409" style="stroke:#000;stroke-width:20.12px;"/>
        <ellipse cx="287.146" cy="270.932" rx="12.098" ry="11.368" style="stroke:#000;stroke-width:20.12px;"/>
        <path d="M487.299,698.545C487.299,698.545 450.128,716.519 412.863,766.392" style="fill:#fb094a;stroke:#000;stroke-width:20.12px;"/>
        <path d="M98.098,181.955C98.098,181.955 134.991,197.05 146.438,215.446" style="fill:#fb094a;stroke:#000;stroke-width:20.12px;"/>
        <path d="M71.21,224.817C71.21,224.817 103.952,225.776 124.925,246.488" style="fill:#fb094a;stroke:#000;stroke-width:20.12px;"/>
        <path d="M348.452,306.261C348.452,306.261 381.586,298.076 409.581,310.821" style="fill:#fb094a;stroke:#000;stroke-width:20.12px;"/>
        <path d="M337.955,338.789C337.955,338.789 365.497,343.759 387.141,365.61" style="fill:#fb094a;stroke:#000;stroke-width:20.12px;"/>
        <path d="M190.677,379.173C190.962,377.218 183.779,378.152 182.753,378.355C177.117,379.473 168.076,384.804 166.215,390.339" style="fill:#fb094a;"/>
        <path d="M188.896,380.503C189.236,380.958 189.749,381.284 190.356,381.373C191.57,381.55 192.7,380.708 192.877,379.494C193.583,377.899 192.43,376.567 190.15,375.521C187.88,374.48 182.979,374.805 182.062,374.87C178.214,375.355 172.887,377.365 168.719,380.359C167.281,381.392 165.947,382.529 164.979,383.818C163.692,385.531 162.859,387.324 162.533,389.101C161.85,391.133 162.945,393.338 164.977,394.021C167.009,394.704 169.214,393.609 169.897,391.577C170.271,390.833 171.099,390.382 171.787,389.674C172.902,388.529 174.171,387.316 175.602,386.252C178.24,384.29 181.089,382.499 183.444,381.84C184.043,381.641 188.954,379.059 188.91,380.772C188.907,380.903 188.923,380.679 188.896,380.503ZM188.486,379.545C188.48,379.846 188.514,380.109 188.748,380.274C188.619,380.051 188.529,379.805 188.486,379.545Z"/>
        <path d="M174.47,409.407C174.415,407.825 165.586,413.591 165.237,413.851C160.281,417.537 157.158,422.873 155.695,428.673" style="fill:#fb094a;"/>
        <path d="M174.248,411.616C174.346,411.628 174.446,411.632 174.547,411.628C175.774,411.586 176.734,410.555 176.692,409.329C176.918,407.816 175.742,406.817 172.915,406.893C171.61,406.929 169.504,407.184 167.303,407.912C164.833,408.727 162.763,410.162 162.575,410.273C158.821,412.645 155.849,415.815 153.628,419.471C153.183,420.205 152.725,420.945 152.446,421.757C151.792,423.663 151.597,425.593 151.497,427.615C150.912,429.932 152.319,432.288 154.637,432.872C156.954,433.456 159.31,432.049 159.894,429.732C160.528,428.4 161.52,427.375 162.207,426.077C163.158,424.282 163.834,422.361 165.048,420.717C165.903,419.558 166.785,418.412 167.898,417.43C168.029,417.309 169.701,416.165 171.277,414.739C172.554,413.583 174.62,412.467 174.248,411.616ZM172.589,410.588C172.711,410.834 172.873,411.031 173.104,411.159C172.901,411.001 172.726,410.808 172.589,410.588Z"/>
        <path d="M180.109,441.663C179.979,440.808 181.801,439.2 180.929,439.2C179.232,439.2 176.248,443.198 175.522,444.245C171.872,449.509 168.508,456.297 166.935,462.536" style="fill:#fb094a;"/>
        <path d="M180.536,444.046C181.637,443.851 182.439,442.932 182.522,441.856C182.549,441.949 182.597,442.037 182.675,442.116C182.981,442.425 183.367,441.613 183.651,441.376C184.712,440.492 184.273,439.304 184.381,438.674C184.632,437.204 183.417,436.804 180.929,435.799C179.928,435.482 178.799,436.043 177.305,436.619C174.93,437.535 172.251,440.481 171.35,441.353C168.208,445.119 164.905,449.55 162.924,454.416C162.577,455.269 162.257,456.137 162.137,457.032C161.931,458.56 162.02,459.857 162.132,461.325C161.464,463.976 163.073,466.67 165.724,467.339C168.374,468.007 171.069,466.398 171.737,463.747C172.422,462.653 173.387,461.929 174.022,460.73C174.687,459.473 175.049,458.047 175.575,456.686C176.861,453.36 178.091,450.013 179.694,447.138C179.865,446.745 180.131,445.186 180.536,444.046Z"/>
        <path d="M268.341,754.254C298.869,738.501 284.84,709.463 284.84,709.463C284.84,709.463 264.005,684.635 236.61,700.351L258.665,695.337C258.665,695.337 234.961,618.191 275.631,523.974" style="fill:#fb094a;stroke:#000;stroke-width:20.12px;"/>
        <path d="M273.395,692.92C273.395,692.92 213.342,583.911 344.346,514.28" style="fill:#fb094a;stroke:#000;stroke-width:20.12px;"/>
        <path d="M285.987,702.044C285.987,702.044 297.126,676.593 333.449,685.236" style="fill:#fb094a;stroke:#000;stroke-width:20.12px;"/>
        <path d="M183.364,271.028C183.364,271.028 186.982,302.001 221.155,289.612C221.155,289.612 225.957,330.872 266.562,313.718" style="fill:#fb094a;stroke:#000;stroke-width:20.12px;"/>
        <path d="M169.898,522.231C181.583,517.098 148.987,599.4 174.191,699.309" style="fill:#fb094a;stroke:#000;stroke-width:20.12px;"/>
    </g>
</svg>
